<svg xmlns="http://www.w3.org/2000/svg" width="48" height="48" fill="none"><path fill="#fff" fill-rule="evenodd" d="M12.85 3.6A1.93 1.93 0 0 1 15.6 3c.31.22.47.97.47.98.04 0 4.96-.1 5.03 0 .1.13-.07 5.32 0 9.04.23-.23.55-.67 1.5-.87.3-.06 1.52-.17 1.53-.17V7.25s-.55-.1-.83-.29c-.47-.32-.73-.73-.7-1.27.1-.51.24-1.44.91-1.92.87-.62 1.67-.66 2.53-.17.9.5 1.37 1.4 1.06 2.35-.22.71-.93.93-1.4 1.3v4.72c.72 0 1.63.32 2.37.32v-.78l.05-2.3v-.4l.01-.66V7.7c.03-1.06.03-1.06.21-1.24l.8-.03h.5c.34-.01 1.26-.02 1.6 0 .35.01.63-.26.88-.67.22-.34.5-.64.97-.78.6-.19 1.2-.2 1.76.22.44.33.53.63.69 1.22.03.38.09.82-.1 1.28a2.01 2.01 0 0 1-1.95 1.23c-.78-.02-1.3-.53-1.74-.96-1-.05-1.89 0-1.9 0v4.7l1.22.39c1.28.75 2.39 1.1 3.25 2.32.33.47.59.9 1.48.97a9.96 9.96 0 0 1 3.16 1.53h6.41v-3.84c-.22-.1-.4-.24-.6-.36-.58-.34-.71-1.09-.65-1.74.06-.67.48-1.08 1.1-1.36.48-.21 1.05-.14 1.57-.1.46.2.82.34 1.07.79.34.59-.06 1.73-.06 1.73 0 .01-.24.69-.53.86-.16.1-.36.18-.47.18v3.43l.01.62c-.02.46-.05 1.3-.22 1.47-.24.02-4.27 0-4.51 0h-2.44c.05.1.77 1.8.84 2.26.1.63.16.84.31 1.29.89.05 1.45.03 2.36 0 .11-.28.17-.69.39-.96.56-.7 1.88-.84 2.64-.33.6.42.7 1.17.75 1.79.06.76-.13 1.06-.63 1.66-.67.38-1.56.75-2.33.27-.45-.28-.82-.84-.82-.84-.03 0-1.81.02-2.1 0 0 .2-.02.1 0 .3 0 1.02-.98 3.22-.99 3.24h2.9c.01 0 1.53.14 1.7.3v4c-.02 1.06.16 1.1.17 1.1 0 0 .66.22.92.55.42.52.39 1.06.17 1.69a1.83 1.83 0 0 1-1.27 1.23 2 2 0 0 1-2.02-.42c-.64-.54-.68-1.36-.45-2.1.15-.5.88-.95.88-.95s-.06-2.3 0-3.45c-.74 0-.84.03-1.39 0-1.06-.06-1.77 0-2.84 0-1.8 0-3.45.42-4.3.74-.62.23-1.58 1.34-1.58 1.34 0 .01-1.03 1.05-1.77 1.63-.75.58-1.16.79-1.17.79v7.9h3.04c.05-.23.1-.34.23-.51.5-.68 1.38-.7 2.13-.3.52.27.79.6.93 1.2.05.66.1 1.26-.4 1.78-.59.62-1.44.78-2.17.32-.39-.23-.47-.55-.72-.91h-4a.78.78 0 0 1-.62-.3l.02-1.06V39.3l-.02-1.48v-2.26c-1 .16-3.73.38-3.76.38 0 0 .05 2.45-.01 4.62.22.11.43.2.63.42.49.5.6 1.09.38 1.75a1.65 1.65 0 0 1-1.35 1.15 1.86 1.86 0 0 1-1.9-.64c-.44-.58-.5-1.2-.17-1.86.19-.4.8-.81.8-.82v-4.62c-2.08-.04-2.97.63-2.98 1.06 0 .44.05 2.2 0 3.27-.02.49.08 1.02-.05 1.25-.05.1-.54.2-.8.2h-2.24c-1.02.02-.64-.17-.85.33-.1.25-.26.37-.43.54-.55.55-1.45.45-2.07-.07-.46-.39-.55-.83-.6-1.43-.04-.54.05-.92.39-1.34.42-.53 1.03-.6 1.67-.47.49.1.67.31 1.04.73.29.39-.03.24.6.26h1.8V37.1c-.91.34-.86.08-1.8.42-2.17.29-3.6-.19-5.73-1.6-2.32-1.53-2.95-2.7-3.63-5.08-.06-.56-.35-1.32-.4-1.89H3v3.38c.22.06.26.14.49.2.45.42.63.83.63 1.44 0 .76-.29 1.3-.92 1.72-.64.41-1.25.46-1.94.15C.64 35.57.15 34.53.14 34.5c0 0-.26-.81-.07-1.27.15-.34.49-.74.85-.82.43-.1.34.12.35-.39v-1l.01-.6v-.75l.03-2.4h6.06c.08-.5 0-.33.08-.84.04-.11.05-.39.09-.5.07-.5-.15-.76-.39-1.18-.43-.8-.26-.42-.45-1.18H4.85c-.11.28-.28.63-.7.87-.46.28-.87.26-1.41.19-.74-.1-1.1-.26-1.43-.92-.4-.78-.18-1.4.29-2.15.49-.75 1.2-.71 1.99-.59.69.11.91.66 1.26 1.13H6.7c.06-1.23 1.27-2.4 1.28-2.42-.02 0-2.44-.06-3.58-.22-.44-.06-1 0-1-.51V14.7c-.22-.11-.44-.07-.68-.23-.49-.31-.54-.76-.61-1.36.08-.7.24-1.16.76-1.57.54-.42 1.08-.5 1.72-.28.8.26 1.25.97 1.29 1.74.03.57-.22 1.09-.72 1.47-.21.17-.3-.05-.23.23v3.34c.7 0 1.33.13 2.03.12h.72c1.57-.01 2.51-.48 3.73-1.66.34-.33.57-.69 1.04-1.3 1.23-1.63 2.51-1.82 4.2-2.2a7.8 7.8 0 0 1 2.94.2V5.55c-1.21 0-3.5.06-3.52.06 0 0-.25.65-.71.78-.97.36-1.86.2-2.43-.46-.6-.68-.48-1.62-.08-2.32Zm21.76 38.9a1 1 0 1 0 0 2 1 1 0 0 0 0-2Zm-10.75-1.36a1 1 0 1 0 0 2 1 1 0 0 0 0-2Zm-9.2-1.13a1 1 0 1 0 0 2 1 1 0 0 0 0-2Zm29.35-5.73a1 1 0 1 0 0 2 1 1 0 0 0 0-2ZM28.07 14.15c-2.36-.48-3.8-.65-5.82.44l-.4.23c.95.98.83.86.83 1.52a6.32 6.32 0 0 1-1.66-.97c-1.07-.95-3.33-.86-5.3-.18-1.05.37-3.13 2.02-2.95 3.09.48 1.29 2.3 2.76 2.3 2.77 0 0 1.8 1.2 2.46 1.52l.12.05c.06.17.17.78.22.95a13.57 13.57 0 0 1-4.1-1.93 20.64 20.64 0 0 1-2.56-2.61s-1.83 1.35-2.4 2.61a9 9 0 0 0-.47 1.6v.92s.2.59.38.59l.63-.75c.26-.32.53-.55.88-.77h1.1l-1.2 1.68c0 .02-1.21 2.55-1.06 4.24A6.02 6.02 0 0 0 11 33.24c.71.62 2.13 1.33 2.95 1.78a7 7 0 0 0 2.06.67c1.5.21 3.25-.19 3.8-.67a3.88 3.88 0 0 1-1.88-.9 2.12 2.12 0 0 0-.56-.38l.68-.46.48.3c.51.28.9.46 1.54.55.59.08 1.22-.09 1.51-.08 3.2.04 6.99-.1 9.49-2.35.7-.75.76-1.26.78-2.3-.05-1.1-.54-1.4-1.29-2.23-1.68-1.3-3.2-1.07-5.21-.9-.97.16-1.84.38-2.78.66-.45.14-.97.23-1.46.34l-.48.1c-.8.2-1.75.24-2.58.3.03.23-.01.44 0 .73.02.3 0 .34.09.76 1.89-.3 3.65-.05 5.57.42.4.13 1.26.18 1.75.16 0 .16-.8.72-.8.9-1.39.2-2.08 0-2.09 0 0 0-1.02-.4-3.53-.4-.54 0-.74-.1-1.5 1.58-.85.84-1.92.7-3.1.7l-.68-.02c-.05-.17-.1-.34-.17-.5l.36-.02c1.2-.07 1.9-.25 2.79-1.13.3-.54.47-1.26.34-2.06-.08-.46-.13-.91-.42-1.12-.39-.28-1.12-.41-1.59-.5-.68-.25-1.06-.1-1.81-.73v-1.01c.45.17 2.48.5 2.48.5.02.01 2.6.66 4.18.3l1.58-.46.5-.16c.34-.11.1-.06.43-.18-.07-.09-.27-.42-.34-.5a5.2 5.2 0 0 1-1.07-2.3c-.26-.63-.39-.61-.96-.98A5.84 5.84 0 0 1 17.7 18l-.06-.46h.67c.01.13.37.2.38.34A5.14 5.14 0 0 0 21 21.06h.33l.17-1.01h.67l-.08.32c-.24 1.47.56 2.44 1.37 3.71.25.33.25.55.58.69.49 0 1-.1 1.5-.14 3.16-.2 2.99-.34 5.64.98.43.22.36.34.84.47.77-.57 1.45-1.7 2.09-2.97h1.24c-.38 1.36-2.15 3.8-2.16 3.82 0 0-.2.54-.08 1.08.05.21.63.97.64.99 0 0 2.74-.16 4.35-1.72.94-1.17 1.07-1.8.93-3.27-.4-2.35-.42-3.58-2.34-4.97-.88-.53-2.43-1.3-3.42-1.18-1.4.75-1.5.63-2.33 1.95-.18.44-.05 1.45-.12 1.92h-1.25v-.97l-1.33-.6c-1.6-.45-2.12-1.02-2.48-1.81-.14-.58-.4-1.07-.41-1.5h.7c.16.26.16.26.34.61.64 1.07 1.75 1.3 2.91 1.68.43.09.49.05.55-.1.18-.46.1-.4.43-.84a4.93 4.93 0 0 1 2.05-1.63c-1.36-1.9-2.06-1.78-4.26-2.4ZM2.1 32.91a1 1 0 1 0 0 2 1 1 0 0 0 0-2ZM45.04 22.6a1 1 0 1 0 0 2 1 1 0 0 0 0-2Zm-42-.84a1 1 0 1 0 0 2 1 1 0 0 0 0-2Zm.98-9.74a1 1 0 1 0 0 2 1 1 0 0 0 0-2Zm42.08-.73a1 1 0 1 0 0 2 1 1 0 0 0 0-2ZM33.7 5.84a1 1 0 1 0 0 2 1 1 0 0 0 0-2ZM24.98 4.3a1 1 0 1 0 0 2 1 1 0 0 0 0-2ZM14.4 3.55a1 1 0 1 0 0 2 1 1 0 0 0 0-2Z" clip-rule="evenodd"/></svg>