<svg width="288" height="263" viewBox="0 0 288 263" fill="none" xmlns="http://www.w3.org/2000/svg">
<path d="M93.8659 1.46985C94.8559 2.78985 95.8459 4.10985 96.8659 5.46985C110.231 5.96485 110.231 5.96485 123.866 6.46985C124.196 27.9199 124.526 49.3699 124.866 71.4699C128.826 69.4899 132.786 67.5099 136.866 65.4699C138.846 64.8099 140.826 64.1499 142.866 63.4699C143.196 51.2599 143.526 39.0499 143.866 26.4699C142.216 25.8099 140.566 25.1499 138.866 24.4699C136.714 21.9271 136.732 19.6725 136.928 16.4699C137.433 13.4368 137.899 12.428 139.866 9.90735C144.071 7.89257 147.438 8.13625 151.866 9.46985C154.751 11.9947 155.589 14.6808 155.866 18.4699C154.888 21.8922 153.676 24.2452 150.866 26.4699C150.206 26.4699 149.546 26.4699 148.866 26.4699C148.866 38.3499 148.866 50.2299 148.866 62.4699C153.156 62.4699 157.446 62.4699 161.866 62.4699C163.516 62.7999 165.166 63.1299 166.866 63.4699C166.904 61.6147 166.904 61.6147 166.942 59.722C167.036 55.1505 167.136 50.5791 167.238 46.0077C167.282 44.026 167.323 42.0442 167.363 40.0624C167.421 37.2202 167.485 34.3783 167.55 31.5363C167.566 30.6446 167.583 29.7529 167.6 28.8342C167.752 22.5837 167.752 22.5837 168.866 21.4699C170.442 21.3732 172.022 21.3379 173.6 21.3292C174.567 21.3099 175.534 21.2906 176.53 21.2706C178.571 21.237 180.613 21.2186 182.655 21.2159C188.767 21.147 188.767 21.147 193.819 17.962C194.495 17.1396 195.17 16.3172 195.866 15.4699C198.661 14.5699 201.026 14.7713 203.866 15.4699C206.856 17.4634 208.444 18.8724 209.378 22.4074C209.569 24.651 209.482 26.3018 208.866 28.4699C205.984 31.7641 204.124 33.2387 199.803 34.0324C196.188 33.3401 194.485 32.0139 191.866 29.4699C191.536 28.8099 191.206 28.1499 190.866 27.4699C184.926 27.1399 178.986 26.8099 172.866 26.4699C172.866 39.6699 172.866 52.8699 172.866 66.4699C175.836 67.4599 175.836 67.4599 178.866 68.4699C186.449 72.9305 194.632 78.8854 199.737 86.1222C202.43 89.0922 204.138 89.3038 208.053 89.9074C216.715 91.628 223.126 95.8046 228.866 102.47C228.866 103.13 228.866 103.79 228.866 104.47C244.046 104.47 259.226 104.47 274.866 104.47C274.866 96.2199 274.866 87.9699 274.866 79.4699C273.546 78.8099 272.226 78.1499 270.866 77.4699C268.333 74.4134 267.858 72.9139 267.928 68.9074C268.942 65.1925 269.882 63.8204 272.866 61.4699C275.686 60.0598 277.736 60.2244 280.866 60.4699C283.611 61.7175 285.339 62.823 287.241 65.1574C288.205 68.7247 287.888 71.9321 286.866 75.4699C284.928 77.9699 284.928 77.9699 282.866 79.4699C282.206 79.4699 281.546 79.4699 280.866 79.4699C280.874 80.7797 280.874 80.7797 280.882 82.1161C280.899 85.3457 280.911 88.5754 280.921 91.8051C280.926 93.2048 280.933 94.6046 280.941 96.0043C280.953 98.0123 280.959 100.02 280.964 102.028C280.971 103.843 280.971 103.843 280.979 105.694C280.866 108.47 280.866 108.47 279.866 109.47C278.424 109.592 276.977 109.648 275.53 109.675C274.148 109.705 274.148 109.705 272.739 109.736C271.738 109.752 270.737 109.769 269.706 109.786C268.686 109.807 267.667 109.828 266.616 109.849C263.345 109.915 260.074 109.974 256.803 110.032C254.592 110.076 252.38 110.119 250.169 110.163C244.735 110.271 239.3 110.372 233.866 110.47C234.348 111.411 234.83 112.352 235.327 113.321C235.965 114.579 236.603 115.837 237.241 117.095C237.558 117.712 237.875 118.33 238.202 118.966C238.511 119.578 238.821 120.191 239.139 120.821C239.422 121.377 239.705 121.932 239.996 122.504C241.138 125.085 241.973 127.792 242.866 130.47C248.146 130.8 253.426 131.13 258.866 131.47C259.526 129.82 260.186 128.17 260.866 126.47C264.901 123.78 268.128 123.69 272.866 124.47C276.075 126.5 277.495 127.893 278.374 131.63C278.723 136.174 278.297 137.954 275.303 141.532C271.323 143.776 269.36 144.205 264.866 143.47C262.113 141.674 260.34 140.417 258.866 137.47C256.317 137.157 253.862 136.957 251.303 136.845C250.237 136.787 250.237 136.787 249.149 136.728C247.389 136.633 245.627 136.55 243.866 136.47C243.928 137.604 243.99 138.739 244.053 139.907C244.064 146.005 242.231 151.422 238.866 156.47C239.949 156.507 239.949 156.507 241.053 156.546C244.303 156.661 247.553 156.784 250.803 156.907C251.94 156.947 253.076 156.986 254.247 157.026C255.326 157.068 256.406 157.11 257.518 157.153C259.019 157.208 259.019 157.208 260.549 157.265C262.866 157.47 262.866 157.47 263.866 158.47C263.963 160.203 263.998 161.941 264.007 163.677C264.036 165.269 264.036 165.269 264.065 166.894C264.099 169.141 264.117 171.388 264.12 173.636C264.061 179.991 264.061 179.991 267.35 185.107C268.18 185.556 269.011 186.006 269.866 186.47C271.479 189.696 271.454 192.981 270.866 196.47C268.468 199.785 266.795 201.153 262.928 202.47C259.119 202.47 257.061 201.503 253.866 199.47C251.409 195.785 251.165 192.75 251.866 188.47C253.66 185.66 254.885 183.96 257.866 182.47C258.196 175.87 258.526 169.27 258.866 162.47C254.447 162.503 250.034 162.571 245.616 162.657C244.381 162.663 243.146 162.669 241.874 162.675C234.224 162.856 228.321 163.991 221.394 167.289C216.471 169.589 211.506 170.349 206.116 170.747C199.087 170.932 199.087 170.932 193.26 174.13C192.329 176.153 192.329 176.153 191.655 178.314C189.191 185.047 182.398 188.581 176.296 191.525C173.866 192.47 173.866 192.47 168.866 193.47C168.866 212.28 168.866 231.09 168.866 250.47C176.456 250.47 184.046 250.47 191.866 250.47C192.196 249.15 192.526 247.83 192.866 246.47C196.559 244.008 199.581 243.678 203.866 244.47C206.85 246.459 208.469 247.855 209.342 251.407C209.625 255.33 209.085 257.141 206.866 260.47C202.71 263.24 200.799 263.175 195.866 262.47C193.366 260.595 193.366 260.595 191.866 258.47C191.866 257.81 191.866 257.15 191.866 256.47C190.647 256.478 190.647 256.478 189.403 256.486C185.745 256.506 182.087 256.519 178.428 256.532C177.149 256.541 175.87 256.549 174.551 256.558C172.729 256.563 172.729 256.563 170.87 256.568C169.744 256.573 168.618 256.578 167.458 256.583C164.866 256.47 164.866 256.47 163.866 255.47C163.772 253.598 163.748 251.723 163.752 249.849C163.752 248.647 163.753 247.446 163.753 246.209C163.758 244.901 163.763 243.594 163.768 242.247C163.77 240.903 163.772 239.56 163.773 238.216C163.776 234.673 163.786 231.13 163.797 227.587C163.807 223.975 163.812 220.362 163.817 216.749C163.828 209.656 163.845 202.563 163.866 195.47C157.926 196.46 151.986 197.45 145.866 198.47C145.536 211.01 145.206 223.55 144.866 236.47C146.186 237.13 147.506 237.79 148.866 238.47C151.366 242.22 151.402 244.028 150.866 248.47C148.585 251.468 146.899 253.082 143.366 254.407C139.426 254.506 136.975 253.464 134.053 250.845C132.326 247.39 132.144 244.257 132.866 240.47C134.741 237.97 134.741 237.97 136.866 236.47C137.526 236.47 138.186 236.47 138.866 236.47C138.866 223.93 138.866 211.39 138.866 198.47C126.499 198.194 126.499 198.194 120.866 203.47C120.362 206.47 120.167 208.92 120.194 211.919C120.181 212.732 120.169 213.546 120.155 214.383C120.119 216.975 120.116 219.565 120.116 222.157C120.094 224.759 120.066 227.361 120.034 229.963C120.016 231.582 120.006 233.2 120.003 234.818C119.974 240.361 119.974 240.361 118.866 241.47C117.29 241.567 115.71 241.602 114.132 241.61C113.165 241.63 112.198 241.649 111.202 241.669C109.16 241.703 107.119 241.721 105.077 241.724C98.955 241.799 98.955 241.799 93.8816 244.982C93.2164 245.803 92.5512 246.624 91.8659 247.47C87.5632 248.161 85.6565 247.985 81.9909 245.595C79.4276 243.031 78.9142 242.21 78.6784 238.595C78.8627 235.524 79.1601 233.984 80.8659 231.47C84.0341 229.358 85.9981 229.138 89.7331 228.911C91.8659 229.47 91.8659 229.47 94.0417 231.946C97.9703 235.457 101.087 235.244 106.178 235.282C109.045 235.344 111.912 235.406 114.866 235.47C114.866 226.23 114.866 216.99 114.866 207.47C109.421 209.45 109.421 209.45 103.866 211.47C90.9488 213.199 80.4283 209.843 69.7644 202.708C58.3056 193.859 47.9172 182.649 43.8659 168.47C43.5359 165.17 43.2059 161.87 42.8659 158.47C32.9659 158.47 23.0659 158.47 12.8659 158.47C12.8659 166.72 12.8659 174.97 12.8659 183.47C14.1859 183.8 15.5059 184.13 16.8659 184.47C19.532 186.945 19.851 188.302 20.1784 191.97C19.7194 197.111 19.7194 197.111 17.8659 199.47C14.4396 201.781 12.3927 202.47 8.24093 202.47C4.16408 201.262 3.00872 200.096 0.86593 196.47C-0.170435 193.509 -0.252424 191.955 0.49093 188.907C1.86593 186.47 1.86593 186.47 4.40768 184.738C7.14064 182.655 7.14064 182.655 7.52535 179.354C7.54106 178.16 7.55677 176.966 7.57296 175.735C7.60108 174.568 7.6292 173.4 7.65817 172.197C7.6682 169.981 7.6682 169.981 7.67843 167.72C7.74031 163.017 7.80218 158.315 7.86593 153.47C19.7459 153.47 31.6259 153.47 43.8659 153.47C44.3609 150.5 44.3609 150.5 44.8659 147.47C45.1018 146.792 45.3377 146.114 45.5808 145.415C46.0069 142.508 44.8235 140.878 43.4284 138.345C40.8659 133.639 40.8659 133.639 40.8659 131.47C36.9059 131.47 32.9459 131.47 28.8659 131.47C28.2059 133.12 27.5459 134.77 26.8659 136.47C23.5072 139.082 19.9748 138.902 15.8659 138.47C13.1126 136.674 11.3397 135.417 9.86593 132.47C9.35831 128.071 9.60793 125.928 11.8034 122.032C15.3875 119.033 17.1587 118.639 21.7058 118.935C25.1567 119.79 26.8048 121.677 28.8659 124.47C28.8659 125.13 28.8659 125.79 28.8659 126.47C32.4959 126.47 36.1259 126.47 39.8659 126.47C39.7731 124.954 39.7731 124.954 39.6784 123.407C40.0273 116.082 43.304 111.793 47.8659 106.47C47.21 106.445 46.554 106.42 45.8781 106.394C42.9155 106.278 39.9532 106.155 36.9909 106.032C35.9584 105.993 34.9259 105.954 33.862 105.913C32.8759 105.871 31.8898 105.829 30.8737 105.786C29.9625 105.75 29.0513 105.713 28.1125 105.675C25.8659 105.47 25.8659 105.47 23.8659 104.47C23.8659 96.2199 23.8659 87.9699 23.8659 79.4699C22.5459 78.8099 21.2259 78.1499 19.8659 77.4699C17.2911 74.987 16.8863 73.6301 16.4284 70.0324C16.9336 65.919 17.9705 64.3652 20.8659 61.4699C24.015 59.8953 26.386 60.1219 29.8659 60.4699C33.538 62.7819 35.4425 64.2993 36.9284 68.4074C36.85 72.2507 36.0282 74.2986 33.8659 77.4699C31.3909 78.4599 31.3909 78.4599 28.8659 79.4699C28.8659 86.0699 28.8659 92.6699 28.8659 99.4699C33.0633 99.4415 37.2554 99.3977 41.4514 99.3173C42.8728 99.2943 44.2944 99.2798 45.716 99.2743C55.0494 99.2315 63.719 98.5821 71.8659 93.4699C73.6431 91.3519 74.9605 89.2731 76.3308 86.8761C81.9495 78.0692 91.3705 72.1926 101.432 69.88C107.903 68.9787 112.14 70.1246 118.866 71.4699C118.866 51.6699 118.866 31.8699 118.866 11.4699C111.606 11.4699 104.346 11.4699 96.8659 11.4699C96.2059 12.7899 95.5459 14.1099 94.8659 15.4699C93.2409 17.2824 93.2409 17.2824 90.8659 18.4699C86.1367 18.4699 83.9734 18.4112 80.3659 15.3449C78.4479 11.6687 78.2078 9.56485 78.8659 5.46985C83.6462 -0.473129 86.795 -1.18174 93.8659 1.46985Z" fill="#00A2E9"/>
<path d="M93.8659 1.46985C94.8559 2.78985 95.8459 4.10985 96.8659 5.46985C110.231 5.96485 110.231 5.96485 123.866 6.46985C124.196 27.9199 124.526 49.3699 124.866 71.4699C128.826 69.4899 132.786 67.5099 136.866 65.4699C138.846 64.8099 140.826 64.1499 142.866 63.4699C143.196 51.2599 143.526 39.0499 143.866 26.4699C142.216 25.8099 140.566 25.1499 138.866 24.4699C136.714 21.9271 136.732 19.6725 136.928 16.4699C137.433 13.4368 137.899 12.428 139.866 9.90735C144.071 7.89257 147.438 8.13625 151.866 9.46985C154.751 11.9947 155.589 14.6808 155.866 18.4699C154.888 21.8922 153.676 24.2452 150.866 26.4699C150.206 26.4699 149.546 26.4699 148.866 26.4699C148.866 38.3499 148.866 50.2299 148.866 62.4699C153.156 62.4699 157.446 62.4699 161.866 62.4699C163.516 62.7999 165.166 63.1299 166.866 63.4699C166.904 61.6147 166.904 61.6147 166.942 59.722C167.036 55.1505 167.136 50.5791 167.238 46.0077C167.282 44.026 167.323 42.0442 167.363 40.0624C167.421 37.2202 167.485 34.3783 167.55 31.5363C167.566 30.6446 167.583 29.7529 167.6 28.8342C167.752 22.5837 167.752 22.5837 168.866 21.4699C170.442 21.3732 172.022 21.3379 173.6 21.3292C174.567 21.3099 175.534 21.2906 176.53 21.2706C178.571 21.237 180.613 21.2186 182.655 21.2159C188.767 21.147 188.767 21.147 193.819 17.962C194.495 17.1396 195.17 16.3172 195.866 15.4699C198.661 14.5699 201.026 14.7713 203.866 15.4699C206.856 17.4634 208.444 18.8724 209.378 22.4074C209.569 24.651 209.482 26.3018 208.866 28.4699C205.984 31.7641 204.124 33.2387 199.803 34.0324C196.188 33.3401 194.485 32.0139 191.866 29.4699C191.536 28.8099 191.206 28.1499 190.866 27.4699C184.926 27.1399 178.986 26.8099 172.866 26.4699C172.866 39.6699 172.866 52.8699 172.866 66.4699C175.836 67.4599 175.836 67.4599 178.866 68.4699C186.449 72.9305 194.632 78.8854 199.737 86.1222C202.43 89.0922 204.138 89.3038 208.053 89.9074C216.715 91.628 223.126 95.8046 228.866 102.47C228.866 103.13 228.866 103.79 228.866 104.47C244.046 104.47 259.226 104.47 274.866 104.47C274.866 96.2199 274.866 87.9699 274.866 79.4699C273.546 78.8099 272.226 78.1499 270.866 77.4699C268.333 74.4134 267.858 72.9139 267.928 68.9074C268.942 65.1925 269.882 63.8204 272.866 61.4699C275.686 60.0598 277.736 60.2244 280.866 60.4699C283.611 61.7175 285.339 62.823 287.241 65.1574C288.205 68.7247 287.888 71.9321 286.866 75.4699C284.928 77.9699 284.928 77.9699 282.866 79.4699C282.206 79.4699 281.546 79.4699 280.866 79.4699C280.874 80.7797 280.874 80.7797 280.882 82.1161C280.899 85.3457 280.911 88.5754 280.921 91.8051C280.926 93.2048 280.933 94.6046 280.941 96.0043C280.953 98.0123 280.959 100.02 280.964 102.028C280.971 103.843 280.971 103.843 280.979 105.694C280.866 108.47 280.866 108.47 279.866 109.47C278.424 109.592 276.977 109.648 275.53 109.675C274.148 109.705 274.148 109.705 272.739 109.736C271.738 109.752 270.737 109.769 269.706 109.786C268.686 109.807 267.667 109.828 266.616 109.849C263.345 109.915 260.074 109.974 256.803 110.032C254.592 110.076 252.38 110.119 250.169 110.163C244.735 110.271 239.3 110.372 233.866 110.47C234.348 111.411 234.83 112.352 235.327 113.321C235.965 114.579 236.603 115.837 237.241 117.095C237.558 117.712 237.875 118.33 238.202 118.966C238.511 119.578 238.821 120.191 239.139 120.821C239.422 121.377 239.705 121.932 239.996 122.504C241.138 125.085 241.973 127.792 242.866 130.47C248.146 130.8 253.426 131.13 258.866 131.47C259.526 129.82 260.186 128.17 260.866 126.47C264.901 123.78 268.128 123.69 272.866 124.47C276.075 126.5 277.495 127.893 278.374 131.63C278.723 136.174 278.297 137.954 275.303 141.532C271.323 143.776 269.36 144.205 264.866 143.47C262.113 141.674 260.34 140.417 258.866 137.47C256.317 137.157 253.862 136.957 251.303 136.845C250.237 136.787 250.237 136.787 249.149 136.728C247.389 136.633 245.627 136.55 243.866 136.47C243.928 137.604 243.99 138.739 244.053 139.907C244.064 146.005 242.231 151.422 238.866 156.47C239.949 156.507 239.949 156.507 241.053 156.546C244.303 156.661 247.553 156.784 250.803 156.907C251.94 156.947 253.076 156.986 254.247 157.026C255.326 157.068 256.406 157.11 257.518 157.153C259.019 157.208 259.019 157.208 260.549 157.265C262.866 157.47 262.866 157.47 263.866 158.47C263.963 160.203 263.998 161.941 264.007 163.677C264.036 165.269 264.036 165.269 264.065 166.894C264.099 169.141 264.117 171.388 264.12 173.636C264.061 179.991 264.061 179.991 267.35 185.107C268.18 185.556 269.011 186.006 269.866 186.47C271.479 189.696 271.454 192.981 270.866 196.47C268.468 199.785 266.795 201.153 262.928 202.47C259.119 202.47 257.061 201.503 253.866 199.47C251.409 195.785 251.165 192.75 251.866 188.47C253.66 185.66 254.885 183.96 257.866 182.47C258.196 175.87 258.526 169.27 258.866 162.47C254.447 162.503 250.034 162.571 245.616 162.657C244.381 162.663 243.146 162.669 241.874 162.675C234.224 162.856 228.321 163.991 221.394 167.289C216.471 169.589 211.506 170.349 206.116 170.747C199.087 170.932 199.087 170.932 193.26 174.13C192.329 176.153 192.329 176.153 191.655 178.314C189.191 185.047 182.398 188.581 176.296 191.525C173.866 192.47 173.866 192.47 168.866 193.47C168.866 212.28 168.866 231.09 168.866 250.47C176.456 250.47 184.046 250.47 191.866 250.47C192.196 249.15 192.526 247.83 192.866 246.47C196.559 244.008 199.581 243.678 203.866 244.47C206.85 246.459 208.469 247.855 209.342 251.407C209.625 255.33 209.085 257.141 206.866 260.47C202.71 263.24 200.799 263.175 195.866 262.47C193.366 260.595 193.366 260.595 191.866 258.47C191.866 257.81 191.866 257.15 191.866 256.47C190.647 256.478 190.647 256.478 189.403 256.486C185.745 256.506 182.087 256.519 178.428 256.532C177.149 256.541 175.87 256.549 174.551 256.558C172.729 256.563 172.729 256.563 170.87 256.568C169.744 256.573 168.618 256.578 167.458 256.583C164.866 256.47 164.866 256.47 163.866 255.47C163.772 253.598 163.748 251.723 163.752 249.849C163.752 248.647 163.753 247.446 163.753 246.209C163.758 244.901 163.763 243.594 163.768 242.247C163.77 240.903 163.772 239.56 163.773 238.216C163.776 234.673 163.786 231.13 163.797 227.587C163.807 223.975 163.812 220.362 163.817 216.749C163.828 209.656 163.845 202.563 163.866 195.47C157.926 196.46 151.986 197.45 145.866 198.47C145.536 211.01 145.206 223.55 144.866 236.47C146.186 237.13 147.506 237.79 148.866 238.47C151.366 242.22 151.402 244.028 150.866 248.47C148.585 251.468 146.899 253.082 143.366 254.407C139.426 254.506 136.975 253.464 134.053 250.845C132.326 247.39 132.144 244.257 132.866 240.47C134.741 237.97 134.741 237.97 136.866 236.47C137.526 236.47 138.186 236.47 138.866 236.47C138.866 223.93 138.866 211.39 138.866 198.47C126.499 198.194 126.499 198.194 120.866 203.47C120.362 206.47 120.167 208.92 120.194 211.919C120.181 212.732 120.169 213.546 120.155 214.383C120.119 216.975 120.116 219.565 120.116 222.157C120.094 224.759 120.066 227.361 120.034 229.963C120.016 231.582 120.006 233.2 120.003 234.818C119.974 240.361 119.974 240.361 118.866 241.47C117.29 241.567 115.71 241.602 114.132 241.61C113.165 241.63 112.198 241.649 111.202 241.669C109.16 241.703 107.119 241.721 105.077 241.724C98.955 241.799 98.955 241.799 93.8816 244.982C93.2164 245.803 92.5512 246.624 91.8659 247.47C87.5632 248.161 85.6565 247.985 81.9909 245.595C79.4276 243.031 78.9142 242.21 78.6784 238.595C78.8627 235.524 79.1601 233.984 80.8659 231.47C84.0341 229.358 85.9981 229.138 89.7331 228.911C91.8659 229.47 91.8659 229.47 94.0417 231.946C97.9703 235.457 101.087 235.244 106.178 235.282C109.045 235.344 111.912 235.406 114.866 235.47C114.866 226.23 114.866 216.99 114.866 207.47C109.421 209.45 109.421 209.45 103.866 211.47C90.9488 213.199 80.4283 209.843 69.7644 202.708C58.3056 193.859 47.9172 182.649 43.8659 168.47C43.5359 165.17 43.2059 161.87 42.8659 158.47C32.9659 158.47 23.0659 158.47 12.8659 158.47C12.8659 166.72 12.8659 174.97 12.8659 183.47C14.1859 183.8 15.5059 184.13 16.8659 184.47C19.532 186.945 19.851 188.302 20.1784 191.97C19.7194 197.111 19.7194 197.111 17.8659 199.47C14.4396 201.781 12.3927 202.47 8.24093 202.47C4.16408 201.262 3.00872 200.096 0.86593 196.47C-0.170435 193.509 -0.252424 191.955 0.49093 188.907C1.86593 186.47 1.86593 186.47 4.40768 184.738C7.14064 182.655 7.14064 182.655 7.52535 179.354C7.54106 178.16 7.55677 176.966 7.57296 175.735C7.60108 174.568 7.6292 173.4 7.65817 172.197C7.6682 169.981 7.6682 169.981 7.67843 167.72C7.74031 163.017 7.80218 158.315 7.86593 153.47C19.7459 153.47 31.6259 153.47 43.8659 153.47C44.3609 150.5 44.3609 150.5 44.8659 147.47C45.1018 146.792 45.3377 146.114 45.5808 145.415C46.0069 142.508 44.8235 140.878 43.4284 138.345C40.8659 133.639 40.8659 133.639 40.8659 131.47C36.9059 131.47 32.9459 131.47 28.8659 131.47C28.2059 133.12 27.5459 134.77 26.8659 136.47C23.5072 139.082 19.9748 138.902 15.8659 138.47C13.1126 136.674 11.3397 135.417 9.86593 132.47C9.35831 128.071 9.60793 125.928 11.8034 122.032C15.3875 119.033 17.1587 118.639 21.7058 118.935C25.1567 119.79 26.8048 121.677 28.8659 124.47C28.8659 125.13 28.8659 125.79 28.8659 126.47C32.4959 126.47 36.1259 126.47 39.8659 126.47C39.7731 124.954 39.7731 124.954 39.6784 123.407C40.0273 116.082 43.304 111.793 47.8659 106.47C47.21 106.445 46.554 106.42 45.8781 106.394C42.9155 106.278 39.9532 106.155 36.9909 106.032C35.9584 105.993 34.9259 105.954 33.862 105.913C32.8759 105.871 31.8898 105.829 30.8737 105.786C29.9625 105.75 29.0513 105.713 28.1125 105.675C25.8659 105.47 25.8659 105.47 23.8659 104.47C23.8659 96.2199 23.8659 87.9699 23.8659 79.4699C22.5459 78.8099 21.2259 78.1499 19.8659 77.4699C17.2911 74.987 16.8863 73.6301 16.4284 70.0324C16.9336 65.919 17.9705 64.3652 20.8659 61.4699C24.015 59.8953 26.386 60.1219 29.8659 60.4699C33.538 62.7819 35.4425 64.2993 36.9284 68.4074C36.85 72.2507 36.0282 74.2986 33.8659 77.4699C31.3909 78.4599 31.3909 78.4599 28.8659 79.4699C28.8659 86.0699 28.8659 92.6699 28.8659 99.4699C33.0633 99.4415 37.2554 99.3977 41.4514 99.3173C42.8728 99.2943 44.2944 99.2798 45.716 99.2743C55.0494 99.2315 63.719 98.5821 71.8659 93.4699C73.6431 91.3519 74.9605 89.2731 76.3308 86.8761C81.9495 78.0692 91.3705 72.1926 101.432 69.88C107.903 68.9787 112.14 70.1246 118.866 71.4699C118.866 51.6699 118.866 31.8699 118.866 11.4699C111.606 11.4699 104.346 11.4699 96.8659 11.4699C96.2059 12.7899 95.5459 14.1099 94.8659 15.4699C93.2409 17.2824 93.2409 17.2824 90.8659 18.4699C86.1367 18.4699 83.9734 18.4112 80.3659 15.3449C78.4479 11.6687 78.2078 9.56485 78.8659 5.46985C83.6462 -0.473129 86.795 -1.18174 93.8659 1.46985ZM126.866 76.4699C127.629 77.2124 128.392 77.9549 129.178 78.7199C134.866 84.5396 134.866 84.5396 134.866 88.4699C131.759 87.0842 129.625 85.4435 127.178 83.0949C120.828 77.4503 113.472 74.1495 104.866 74.4699C94.9578 75.8554 86.3319 81.8726 80.3034 89.7199C76.7571 94.8131 74.7913 99.126 75.8659 105.47C78.7536 113.165 85.4151 117.949 92.6755 121.307C95.7799 122.646 98.8994 123.9 102.057 125.11C102.984 125.559 103.911 126.008 104.866 126.47C105.196 127.46 105.526 128.45 105.866 129.47C97.3682 127.206 90.1119 124.489 82.8659 119.47C82.2807 119.092 81.6955 118.714 81.0925 118.325C75.4083 114.243 72.3055 107.172 70.8659 100.47C60.2828 103.547 51.4406 107.594 45.7292 117.427C43.3604 123.033 44.6846 128.579 46.8659 134.032C47.5173 135.518 48.1786 137 48.8659 138.47C49.8559 138.47 50.8459 138.47 51.8659 138.47C53.1372 137.003 54.4035 135.53 55.6042 134.005C57.1666 132.104 58.7563 130.736 60.8659 129.47C61.8559 129.47 62.8459 129.47 63.8659 129.47C62.3716 133.037 60.3145 135.112 57.4909 137.72C51.5084 143.558 47.8591 149.976 47.5534 158.47C47.8193 173.215 57.0864 184.384 67.2214 194.177C71.4587 197.851 75.9529 200.782 80.8659 203.47C81.8289 204.011 81.8289 204.011 82.8112 204.564C90.0101 207.929 99.3816 207.641 106.917 205.673C110.99 204.104 114.537 202.333 117.866 199.47C117.866 198.81 117.866 198.15 117.866 197.47C114.896 197.14 111.926 196.81 108.866 196.47C108.536 195.48 108.206 194.49 107.866 193.47C108.928 193.486 109.99 193.501 111.084 193.517C115.112 193.573 119.14 193.607 123.167 193.635C124.894 193.65 126.621 193.67 128.348 193.696C147.316 193.978 169.883 193.138 184.757 179.771C188.906 175.289 190.779 171.078 190.928 164.864C190.642 158.365 189.333 153.328 184.866 148.47C174.901 140.689 161.808 141.432 149.866 142.47C144.142 143.419 138.628 145.079 133.094 146.794C129.505 147.882 125.879 148.809 122.241 149.72C121.586 149.885 120.93 150.051 120.255 150.222C115.456 151.403 110.79 152.118 105.866 152.47C106.009 153.866 106.155 155.262 106.303 156.657C106.385 157.435 106.466 158.212 106.55 159.013C106.874 161.53 107.341 163.988 107.866 166.47C109.173 166.253 109.173 166.253 110.507 166.032C121.767 164.277 131.609 163.331 142.589 166.814C144.951 167.608 144.951 167.608 147.866 167.47C147.866 168.46 147.866 169.45 147.866 170.47C140.305 169.588 140.305 169.588 137.978 168.963C128.972 166.861 115.108 167.131 106.866 171.47C104.899 174.321 104.899 174.321 103.866 177.47C98.8317 182.504 92.9017 184.646 85.8659 184.657C84.532 184.61 83.1981 184.553 81.8659 184.47C81.5359 183.48 81.2059 182.49 80.8659 181.47C81.5672 181.444 82.2684 181.418 82.9909 181.392C90.1551 180.963 96.3339 180.01 101.565 174.767C103.359 171.598 103.229 169.152 103.178 165.532C103.173 163.724 103.173 163.724 103.167 161.88C102.822 157.393 102.822 157.393 100.866 153.47C98.1873 152.53 95.8761 151.909 93.1159 151.407C87.5005 150.333 83.3276 149.181 78.8659 145.47C78.8659 144.48 78.8659 143.49 78.8659 142.47C81.5659 143.473 83.9637 144.529 86.4284 146.032C94.9946 151.084 109.097 149.38 118.463 147.188C121.626 146.36 124.743 145.444 127.866 144.47C128.853 144.162 129.841 143.854 130.858 143.536C132.872 142.881 134.872 142.182 136.866 141.47C136.468 140.962 136.069 140.454 135.659 139.931C131.928 135.083 128.656 130.547 127.112 124.532C125.587 120.785 124.049 119.761 120.678 117.595C113.543 112.707 106.938 107.045 105.241 98.2199C105.117 97.3124 104.993 96.4049 104.866 95.4699C106.186 95.4699 107.506 95.4699 108.866 95.4699C108.907 96.2949 108.948 97.1199 108.991 97.9699C111.07 106.285 117.851 111.98 124.866 116.47C125.526 116.47 126.186 116.47 126.866 116.47C127.196 114.49 127.526 112.51 127.866 110.47C129.186 110.47 130.506 110.47 131.866 110.47C131.701 111.109 131.536 111.749 131.366 112.407C129.941 121.137 131.097 126.907 135.866 134.47C138.592 138.245 138.592 138.245 142.784 139.798C145.707 139.864 148.347 139.583 151.206 138.962C162.289 136.911 174.771 138.026 184.428 144.095C185.028 144.52 185.627 144.946 186.245 145.384C187.995 146.66 187.995 146.66 190.866 147.47C198.288 143.7 206.098 137.006 209.866 129.47C210.856 129.47 211.846 129.47 212.866 129.47C210.575 137.615 203.418 143.116 196.882 147.927C196.216 148.436 195.551 148.945 194.866 149.47C194.256 149.882 193.646 150.295 193.018 150.72C191.519 152.592 191.519 152.592 192.229 155.825C192.542 157.09 192.856 158.354 193.178 159.657C193.637 161.566 193.637 161.566 194.104 163.513C194.356 164.489 194.607 165.464 194.866 166.47C207.559 166.035 223.264 164.754 232.866 155.47C238.417 148.508 239.282 142.876 238.487 134.103C236.101 120.148 227.252 105.925 215.811 97.6417C210.613 94.5103 204.722 94.7343 198.866 95.4699C190.439 98.6954 184.49 105.008 179.991 112.657C178.941 115.281 178.276 117.679 177.866 120.47C177.206 120.47 176.546 120.47 175.866 120.47C175.866 117.83 175.866 115.19 175.866 112.47C174.781 111.974 173.695 111.477 172.577 110.966C157.903 104.076 157.903 104.076 153.866 97.4699C152.991 94.0324 152.991 94.0324 152.866 91.4699C153.526 91.4699 154.186 91.4699 154.866 91.4699C155.839 93.0089 155.839 93.0089 156.928 95.0949C160.71 101.423 166.945 105.184 173.866 107.47C176.398 108.027 176.398 108.027 178.866 107.47C181.117 105.454 181.117 105.454 183.116 102.782C187.195 97.9492 191.124 95.0489 196.866 92.4699C192.273 81.4515 179.769 73.981 169.413 69.38C154.094 63.8763 140.123 68.4827 126.866 76.4699Z" fill="#003071"/>
<path d="M26.3034 65.1573C28.8659 65.4698 28.8659 65.4698 30.7409 66.6573C31.8659 68.4698 31.8659 68.4698 31.7409 71.0323C30.8659 73.4698 30.8659 73.4698 27.8659 75.4698C24.9051 75.111 24.0193 74.6233 21.8659 72.4698C21.6159 69.9698 21.6159 69.9698 21.8659 67.4698C23.8659 65.4698 23.8659 65.4698 26.3034 65.1573Z" fill="#009CE3"/>
<path d="M261.366 187.22C263.866 187.47 263.866 187.47 265.866 189.47C265.491 193.095 265.491 193.095 264.866 196.47C262.553 197.095 262.553 197.095 259.866 197.47C258.876 196.81 257.886 196.15 256.866 195.47C256.553 192.47 256.553 192.47 256.866 189.47C258.866 187.47 258.866 187.47 261.366 187.22Z" fill="#009CE3"/>
<path d="M7.86591 187.47C10.9909 187.845 10.9909 187.845 13.8659 188.47C15.1943 193.904 15.1943 193.904 13.7409 196.407C11.8659 197.47 11.8659 197.47 9.30341 197.345C6.86591 196.47 6.86591 196.47 4.86591 193.47C5.22479 190.509 5.71249 189.623 7.86591 187.47Z" fill="#009DE4"/>
<path d="M275.866 65.4698C279.163 65.7996 280.489 66.0925 282.866 68.4698C282.803 70.9698 282.803 70.9698 281.866 73.4698C279.553 74.9698 279.553 74.9698 276.866 75.4698C274.553 74.0948 274.553 74.0948 272.866 72.4698C273.616 67.7198 273.616 67.7198 275.866 65.4698Z" fill="#009EE5"/>
<path d="M268.366 129.22C270.866 129.47 270.866 129.47 272.866 131.47C273.116 133.97 273.116 133.97 272.866 136.47C270.866 138.47 270.866 138.47 268.366 138.72C265.866 138.47 265.866 138.47 263.866 136.47C263.616 133.97 263.616 133.97 263.866 131.47C265.866 129.47 265.866 129.47 268.366 129.22Z" fill="#00A1E9"/>
<path d="M19.3659 124.22C21.8659 124.47 21.8659 124.47 23.8659 126.47C24.1159 128.97 24.1159 128.97 23.8659 131.47C21.8659 133.47 21.8659 133.47 19.3659 133.72C16.8659 133.47 16.8659 133.47 14.8659 131.47C14.6159 128.97 14.6159 128.97 14.8659 126.47C16.8659 124.47 16.8659 124.47 19.3659 124.22Z" fill="#00A1E8"/>
<path d="M139.866 240.47C142.491 240.845 142.491 240.845 144.866 241.47C145.553 243.782 145.553 243.782 145.866 246.47C144.428 248.282 144.428 248.282 142.866 249.47C140.391 248.48 140.391 248.48 137.866 247.47C137.741 245.095 137.741 245.095 137.866 242.47C138.526 241.81 139.186 241.15 139.866 240.47Z" fill="#009CE3"/>
<path d="M86.8659 4.46985C89.3409 5.45985 89.3409 5.45985 91.8659 6.46985C91.9909 8.84485 91.9909 8.84485 91.8659 11.4698C91.2059 12.1298 90.5459 12.7898 89.8659 13.4698C87.2409 13.0948 87.2409 13.0948 84.8659 12.4698C84.1784 10.1573 84.1784 10.1573 83.8659 7.46985C85.3034 5.65735 85.3034 5.65735 86.8659 4.46985Z" fill="#009CE3"/>
<path d="M196.866 20.4698C198.865 20.4273 200.866 20.429 202.866 20.4698C203.866 21.4698 203.866 21.4698 204.053 23.9073C203.866 26.4698 203.866 26.4698 201.866 28.4698C199.241 28.0948 199.241 28.0948 196.866 27.4698C195.741 22.7198 195.741 22.7198 196.866 20.4698Z" fill="#009EE5"/>
<path d="M146.866 13.6574C148.866 14.4699 148.866 14.4699 150.116 16.5324C150.363 17.1717 150.611 17.8111 150.866 18.4699C149.876 19.9549 149.876 19.9549 148.866 21.4699C146.366 21.7824 146.366 21.7824 143.866 21.4699C143.206 20.8099 142.546 20.1499 141.866 19.4699C142.116 16.9074 142.116 16.9074 142.866 14.4699C144.866 13.4699 144.866 13.4699 146.866 13.6574Z" fill="#009DE4"/>
<path d="M88.4909 234.345C89.2747 234.386 90.0584 234.427 90.8659 234.47C91.4909 237.345 91.4909 237.345 91.8659 240.47C91.2059 241.13 90.5459 241.79 89.8659 242.47C87.2409 242.095 87.2409 242.095 84.8659 241.47C84.2409 239.095 84.2409 239.095 83.8659 236.47C85.8659 234.47 85.8659 234.47 88.4909 234.345Z" fill="#00A1E8"/>
<path d="M197.866 249.47C200.491 249.845 200.491 249.845 202.866 250.47C203.491 252.845 203.491 252.845 203.866 255.47C203.206 256.13 202.546 256.79 201.866 257.47C199.241 257.095 199.241 257.095 196.866 256.47C196.241 254.095 196.241 254.095 195.866 251.47C196.526 250.81 197.186 250.15 197.866 249.47Z" fill="#00A2E9"/>
</svg>
