<?xml version="1.0" encoding="UTF-8"?>
<svg version="1.1" xmlns="http://www.w3.org/2000/svg" width="500" height="300">
<path d="M0 0 C0.99 1.32 1.98 2.64 3 4 C16.365 4.495 16.365 4.495 30 5 C30.33 26.45 30.66 47.9 31 70 C34.96 68.02 38.92 66.04 43 64 C44.98 63.34 46.96 62.68 49 62 C49.33 49.79 49.66 37.58 50 25 C48.35 24.34 46.7 23.68 45 23 C42.84842113 20.45722497 42.86605508 18.20264754 43.0625 15 C43.56706174 11.9669603 44.03263852 10.9581819 46 8.4375 C50.20475977 6.42271928 53.57175669 6.66639777 58 8 C60.88553572 10.52484375 61.72275236 13.21094886 62 17 C61.02217764 20.42237825 59.8100286 22.77539402 57 25 C56.34 25 55.68 25 55 25 C55 36.88 55 48.76 55 61 C59.29 61 63.58 61 68 61 C69.65 61.33 71.3 61.66 73 62 C73.03758423 60.14483765 73.03758423 60.14483765 73.07592773 58.25219727 C73.16982253 53.68063287 73.27008629 49.10922682 73.37231445 44.5378418 C73.41573144 42.55610854 73.45740137 40.57433622 73.49731445 38.5925293 C73.55485383 35.7503683 73.61859445 32.90840517 73.68359375 30.06640625 C73.70030624 29.17474258 73.71701874 28.28307892 73.73423767 27.36439514 C73.88612829 21.11387171 73.88612829 21.11387171 75 20 C76.57585904 19.90333532 78.15557756 19.86800231 79.734375 19.859375 C80.70117188 19.84003906 81.66796875 19.82070313 82.6640625 19.80078125 C84.70553416 19.76718741 86.74731614 19.7487181 88.7890625 19.74609375 C94.90092609 19.67714918 94.90092609 19.67714918 99.953125 16.4921875 C100.62859375 15.66976562 101.3040625 14.84734375 102 14 C104.79507516 13.1000705 107.16016251 13.30149159 110 14 C112.99028679 15.99352453 114.57809415 17.40255495 115.51171875 20.9375 C115.70293629 23.18111914 115.61632427 24.83193733 115 27 C112.11756811 30.29420787 110.25851556 31.76884408 105.9375 32.5625 C102.32218892 31.87020639 100.61891584 30.54408967 98 28 C97.67 27.34 97.34 26.68 97 26 C91.06 25.67 85.12 25.34 79 25 C79 38.2 79 51.4 79 65 C81.97 65.99 81.97 65.99 85 67 C92.58313385 71.46066697 100.76592807 77.41558489 105.87109375 84.65234375 C108.56438756 87.62237968 110.27157421 87.83397022 114.1875 88.4375 C122.84905414 90.15814544 129.26048608 94.33475803 135 101 C135 101.66 135 102.32 135 103 C150.18 103 165.36 103 181 103 C181 94.75 181 86.5 181 78 C179.68 77.34 178.36 76.68 177 76 C174.46750886 72.94354518 173.99220997 71.44403151 174.0625 67.4375 C175.07563312 63.72267858 176.016553 62.35059461 179 60 C181.82001327 58.58999336 183.87007255 58.75451549 187 59 C189.74483673 60.24765306 191.47294058 61.35315435 193.375 63.6875 C194.33916017 67.25489262 194.02217094 70.46227362 193 74 C191.0625 76.5 191.0625 76.5 189 78 C188.34 78 187.68 78 187 78 C187.00785522 79.30988892 187.00785522 79.30988892 187.01586914 80.64624023 C187.03287751 83.87589273 187.04543369 87.10552245 187.05493164 90.33520508 C187.0599708 91.73495228 187.06680216 93.1346942 187.07543945 94.53442383 C187.0875232 96.54245777 187.09269807 98.55052957 187.09765625 100.55859375 C187.10551147 102.37315063 187.10551147 102.37315063 187.11352539 104.22436523 C187 107 187 107 186 108 C184.55815707 108.12221525 183.11056856 108.17772758 181.66381836 108.20532227 C180.28249977 108.2352401 180.28249977 108.2352401 178.87327576 108.26576233 C177.87224319 108.28247482 176.87121063 108.29918732 175.83984375 108.31640625 C174.82024063 108.33718735 173.80063751 108.35796844 172.75013733 108.37937927 C169.47932952 108.44498852 166.20843863 108.50381234 162.9375 108.5625 C160.72590272 108.60567442 158.51431397 108.64928834 156.30273438 108.69335938 C150.86857849 108.8006814 145.43433918 108.90242623 140 109 C140.48210937 109.94101563 140.96421875 110.88203125 141.4609375 111.8515625 C142.0991747 113.10926522 142.7371834 114.36708392 143.375 115.625 C143.69210937 116.24246094 144.00921875 116.85992187 144.3359375 117.49609375 C144.6453125 118.10839844 144.9546875 118.72070312 145.2734375 119.3515625 C145.55622559 119.90666504 145.83901367 120.46176758 146.13037109 121.03369141 C147.27198289 123.61497759 148.1074578 126.32237339 149 129 C154.28 129.33 159.56 129.66 165 130 C165.66 128.35 166.32 126.7 167 125 C171.03485494 122.31009671 174.26228652 122.22006118 179 123 C182.20879247 125.03005238 183.62927537 126.42299447 184.5078125 130.16015625 C184.85679663 134.70453652 184.43155073 136.48424425 181.4375 140.0625 C177.45664064 142.30625709 175.49411434 142.73540053 171 142 C168.24670979 140.20437595 166.47372539 138.94745078 165 136 C162.45058627 135.68758629 159.99638487 135.48696579 157.4375 135.375 C156.37112305 135.31699219 156.37112305 135.31699219 155.28320312 135.2578125 C153.52257575 135.16328217 151.76132272 135.08054183 150 135 C150.061875 136.134375 150.12375 137.26875 150.1875 138.4375 C150.19835031 144.53537367 148.36543413 149.9518488 145 155 C146.08269165 155.03758423 146.08269165 155.03758423 147.18725586 155.07592773 C150.437535 155.19151302 153.68749688 155.31440774 156.9375 155.4375 C158.07380859 155.47681641 159.21011719 155.51613281 160.38085938 155.55664062 C161.46044922 155.59853516 162.54003906 155.64042969 163.65234375 155.68359375 C165.15269165 155.73858032 165.15269165 155.73858032 166.68334961 155.79467773 C169 156 169 156 170 157 C170.09692695 158.73360243 170.13201459 160.47074266 170.140625 162.20703125 C170.16962891 163.7993457 170.16962891 163.7993457 170.19921875 165.42382812 C170.23289463 167.67104558 170.25128835 169.91854739 170.25390625 172.16601562 C170.19521869 178.52065304 170.19521869 178.52065304 173.484375 183.63671875 C174.31453125 184.08660156 175.1446875 184.53648437 176 185 C177.61320044 188.22640088 177.58810373 191.5114756 177 195 C174.60161784 198.31541064 172.92940514 199.68360676 169.0625 201 C165.25275797 201 163.19501129 200.033189 160 198 C157.54334803 194.31502204 157.29913509 191.28028214 158 187 C159.79363911 184.1899654 161.01880935 182.49059532 164 181 C164.33 174.4 164.66 167.8 165 161 C160.58140426 161.03329079 156.16761461 161.10083653 151.75 161.1875 C150.51507813 161.19330078 149.28015625 161.19910156 148.0078125 161.20507812 C140.35760084 161.38626735 134.4549567 162.52158562 127.52758789 165.81884766 C122.60481005 168.11928224 117.64032809 168.87868407 112.25 169.27734375 C105.22102708 169.46238141 105.22102708 169.46238141 99.39453125 172.66015625 C98.46288916 174.68295466 98.46288916 174.68295466 97.7890625 176.84375 C95.32507876 183.5770125 88.53157715 187.11096438 82.4296875 190.0546875 C80 191 80 191 75 192 C75 210.81 75 229.62 75 249 C82.59 249 90.18 249 98 249 C98.33 247.68 98.66 246.36 99 245 C102.69329658 242.53780228 105.7149344 242.20801317 110 243 C112.9838283 244.98921886 114.60276841 246.38502568 115.4765625 249.9375 C115.75890933 253.86063492 115.21925086 255.67112371 113 259 C108.84437903 261.77041398 106.93332128 261.70476018 102 261 C99.5 259.125 99.5 259.125 98 257 C98 256.34 98 255.68 98 255 C96.78098999 255.00785522 96.78098999 255.00785522 95.53735352 255.01586914 C91.87907678 255.03656994 88.22081233 255.04963803 84.5625 255.0625 C83.28310547 255.07087891 82.00371094 255.07925781 80.68554688 255.08789062 C78.86313477 255.09272461 78.86313477 255.09272461 77.00390625 255.09765625 C75.87799072 255.10289307 74.7520752 255.10812988 73.59204102 255.11352539 C71 255 71 255 70 254 C69.90613619 252.1281906 69.88256196 250.2528194 69.88647461 248.37866211 C69.88655014 247.17749252 69.88662567 245.97632294 69.88670349 244.73875427 C69.89186478 243.4314888 69.89702606 242.12422333 69.90234375 240.77734375 C69.90420802 239.43355868 69.90563188 238.08977293 69.90663147 236.74598694 C69.91045598 233.20317723 69.92028568 229.6604083 69.93133545 226.11761475 C69.94155101 222.50484773 69.9461294 218.89207416 69.95117188 215.27929688 C69.96190802 208.18617961 69.97950428 201.09309675 70 194 C64.06 194.99 58.12 195.98 52 197 C51.67 209.54 51.34 222.08 51 235 C52.32 235.66 53.64 236.32 55 237 C57.50031654 240.75047482 57.53603554 242.55856266 57 247 C54.71871506 249.99826021 53.03347588 251.61244655 49.5 252.9375 C45.56023367 253.03599416 43.10903973 251.99431148 40.1875 249.375 C38.45988071 245.91976142 38.27826331 242.78717744 39 239 C40.875 236.5 40.875 236.5 43 235 C43.66 235 44.32 235 45 235 C45 222.46 45 209.92 45 197 C32.63283665 196.72434505 32.63283665 196.72434505 27 202 C26.49648309 205.00028077 26.30113258 207.44996512 26.328125 210.44921875 C26.31537537 211.26244095 26.30262573 212.07566315 26.28948975 212.91352844 C26.2532044 215.50520804 26.25048074 218.09558871 26.25 220.6875 C26.22841345 223.28963906 26.20000806 225.89158023 26.16766357 228.49360657 C26.14984693 230.11169358 26.13961199 231.7298845 26.13751221 233.34806824 C26.1085166 238.8914834 26.1085166 238.8914834 25 240 C23.42414096 240.09666468 21.84442244 240.13199769 20.265625 240.140625 C19.29882812 240.15996094 18.33203125 240.17929687 17.3359375 240.19921875 C15.29446584 240.23281259 13.25268386 240.2512819 11.2109375 240.25390625 C5.0890805 240.32917507 5.0890805 240.32917507 0.015625 243.51171875 C-0.64953125 244.33285156 -1.3146875 245.15398437 -2 246 C-6.30274909 246.69151325 -8.20945312 246.51557405 -11.875 244.125 C-14.4383705 241.5616295 -14.95175854 240.73970243 -15.1875 237.125 C-15.00322294 234.05371571 -14.7058043 232.51381686 -13 230 C-9.83181244 227.88787496 -7.86780748 227.66843536 -4.1328125 227.44140625 C-2 228 -2 228 0.17578125 230.4765625 C4.10440011 233.98678073 7.22069277 233.7744227 12.3125 233.8125 C15.179375 233.874375 18.04625 233.93625 21 234 C21 224.76 21 215.52 21 206 C15.555 207.98 15.555 207.98 10 210 C-2.91714578 211.72906676 -13.43760495 208.37304941 -24.1015625 201.23828125 C-35.56036654 192.38936654 -45.94871305 181.17950431 -50 167 C-50.33 163.7 -50.66 160.4 -51 157 C-60.9 157 -70.8 157 -81 157 C-81 165.25 -81 173.5 -81 182 C-79.68 182.33 -78.36 182.66 -77 183 C-74.33396884 185.47560037 -74.01495208 186.83253672 -73.6875 190.5 C-74.14652015 195.64102564 -74.14652015 195.64102564 -76 198 C-79.42630805 200.3107659 -81.47321742 201 -85.625 201 C-89.70185063 199.79204426 -90.85721503 198.62625148 -93 195 C-94.03636536 192.03895611 -94.11835389 190.48525094 -93.375 187.4375 C-92 185 -92 185 -89.45825195 183.26855469 C-86.72528648 181.18540295 -86.72528648 181.18540295 -86.34057617 177.88378906 C-86.32486572 176.68979492 -86.30915527 175.49580078 -86.29296875 174.265625 C-86.26485107 173.09805664 -86.2367334 171.93048828 -86.20776367 170.72753906 C-86.19773315 168.51115723 -86.19773315 168.51115723 -86.1875 166.25 C-86.125625 161.5475 -86.06375 156.845 -86 152 C-74.12 152 -62.24 152 -50 152 C-49.505 149.03 -49.505 149.03 -49 146 C-48.76410156 145.32195312 -48.52820313 144.64390625 -48.28515625 143.9453125 C-47.85905514 141.03848577 -49.04247467 139.40797282 -50.4375 136.875 C-53 132.16893733 -53 132.16893733 -53 130 C-56.96 130 -60.92 130 -65 130 C-65.66 131.65 -66.32 133.3 -67 135 C-70.35872614 137.61234256 -73.89112621 137.43251303 -78 137 C-80.75329021 135.20437595 -82.52627461 133.94745078 -84 131 C-84.50761671 126.60065519 -84.25800237 124.45774614 -82.0625 120.5625 C-78.47846039 117.56360972 -76.70725908 117.16878864 -72.16015625 117.46484375 C-68.7092337 118.31977393 -67.06115087 120.20747302 -65 123 C-65 123.66 -65 124.32 -65 125 C-61.37 125 -57.74 125 -54 125 C-54.0928125 123.4840625 -54.0928125 123.4840625 -54.1875 121.9375 C-53.83866909 114.61205094 -50.56188016 110.3234379 -46 105 C-46.65597168 104.97494385 -47.31194336 104.9498877 -47.98779297 104.92407227 C-50.95040183 104.8082674 -53.91268031 104.68547114 -56.875 104.5625 C-57.90753906 104.52318359 -58.94007813 104.48386719 -60.00390625 104.44335938 C-60.99003906 104.40146484 -61.97617188 104.35957031 -62.9921875 104.31640625 C-63.90339355 104.27974854 -64.81459961 104.24309082 -65.75341797 104.20532227 C-68 104 -68 104 -70 103 C-70 94.75 -70 86.5 -70 78 C-71.32 77.34 -72.64 76.68 -74 76 C-76.57483119 73.51712707 -76.97960187 72.16027098 -77.4375 68.5625 C-76.93235165 64.44914913 -75.89538484 62.89538484 -73 60 C-69.85088521 58.42544261 -67.47991184 58.65200882 -64 59 C-60.32796014 61.3120251 -58.42340506 62.82940955 -56.9375 66.9375 C-57.01593536 70.78083267 -57.83775763 72.82871119 -60 76 C-62.475 76.99 -62.475 76.99 -65 78 C-65 84.6 -65 91.2 -65 98 C-60.80258814 97.97163911 -56.61056998 97.92786675 -52.41455078 97.84741211 C-50.99311403 97.82448571 -49.57151352 97.80989711 -48.14990234 97.80444336 C-38.81654668 97.7616298 -30.14690071 97.1122603 -22 92 C-20.22287171 89.8820328 -18.90544178 87.80325093 -17.53515625 85.40625 C-11.91643623 76.59929954 -2.49544569 70.72269756 7.56640625 68.41015625 C14.03743354 67.50887076 18.27383602 68.6547672 25 70 C25 50.2 25 30.4 25 10 C17.74 10 10.48 10 3 10 C2.34 11.32 1.68 12.64 1 14 C-0.625 15.8125 -0.625 15.8125 -3 17 C-7.72924231 17 -9.89252499 16.94135376 -13.5 13.875 C-15.41801815 10.19879854 -15.65812497 8.09499984 -15 4 C-10.21977502 -1.9429824 -7.07091369 -2.65159264 0 0 Z " fill="#00A2E9" transform="translate(200,20)"/>
<path d="M0 0 C0.99 1.32 1.98 2.64 3 4 C16.365 4.495 16.365 4.495 30 5 C30.33 26.45 30.66 47.9 31 70 C34.96 68.02 38.92 66.04 43 64 C44.98 63.34 46.96 62.68 49 62 C49.33 49.79 49.66 37.58 50 25 C48.35 24.34 46.7 23.68 45 23 C42.84842113 20.45722497 42.86605508 18.20264754 43.0625 15 C43.56706174 11.9669603 44.03263852 10.9581819 46 8.4375 C50.20475977 6.42271928 53.57175669 6.66639777 58 8 C60.88553572 10.52484375 61.72275236 13.21094886 62 17 C61.02217764 20.42237825 59.8100286 22.77539402 57 25 C56.34 25 55.68 25 55 25 C55 36.88 55 48.76 55 61 C59.29 61 63.58 61 68 61 C69.65 61.33 71.3 61.66 73 62 C73.03758423 60.14483765 73.03758423 60.14483765 73.07592773 58.25219727 C73.16982253 53.68063287 73.27008629 49.10922682 73.37231445 44.5378418 C73.41573144 42.55610854 73.45740137 40.57433622 73.49731445 38.5925293 C73.55485383 35.7503683 73.61859445 32.90840517 73.68359375 30.06640625 C73.70030624 29.17474258 73.71701874 28.28307892 73.73423767 27.36439514 C73.88612829 21.11387171 73.88612829 21.11387171 75 20 C76.57585904 19.90333532 78.15557756 19.86800231 79.734375 19.859375 C80.70117188 19.84003906 81.66796875 19.82070313 82.6640625 19.80078125 C84.70553416 19.76718741 86.74731614 19.7487181 88.7890625 19.74609375 C94.90092609 19.67714918 94.90092609 19.67714918 99.953125 16.4921875 C100.62859375 15.66976562 101.3040625 14.84734375 102 14 C104.79507516 13.1000705 107.16016251 13.30149159 110 14 C112.99028679 15.99352453 114.57809415 17.40255495 115.51171875 20.9375 C115.70293629 23.18111914 115.61632427 24.83193733 115 27 C112.11756811 30.29420787 110.25851556 31.76884408 105.9375 32.5625 C102.32218892 31.87020639 100.61891584 30.54408967 98 28 C97.67 27.34 97.34 26.68 97 26 C91.06 25.67 85.12 25.34 79 25 C79 38.2 79 51.4 79 65 C81.97 65.99 81.97 65.99 85 67 C92.58313385 71.46066697 100.76592807 77.41558489 105.87109375 84.65234375 C108.56438756 87.62237968 110.27157421 87.83397022 114.1875 88.4375 C122.84905414 90.15814544 129.26048608 94.33475803 135 101 C135 101.66 135 102.32 135 103 C150.18 103 165.36 103 181 103 C181 94.75 181 86.5 181 78 C179.68 77.34 178.36 76.68 177 76 C174.46750886 72.94354518 173.99220997 71.44403151 174.0625 67.4375 C175.07563312 63.72267858 176.016553 62.35059461 179 60 C181.82001327 58.58999336 183.87007255 58.75451549 187 59 C189.74483673 60.24765306 191.47294058 61.35315435 193.375 63.6875 C194.33916017 67.25489262 194.02217094 70.46227362 193 74 C191.0625 76.5 191.0625 76.5 189 78 C188.34 78 187.68 78 187 78 C187.00785522 79.30988892 187.00785522 79.30988892 187.01586914 80.64624023 C187.03287751 83.87589273 187.04543369 87.10552245 187.05493164 90.33520508 C187.0599708 91.73495228 187.06680216 93.1346942 187.07543945 94.53442383 C187.0875232 96.54245777 187.09269807 98.55052957 187.09765625 100.55859375 C187.10551147 102.37315063 187.10551147 102.37315063 187.11352539 104.22436523 C187 107 187 107 186 108 C184.55815707 108.12221525 183.11056856 108.17772758 181.66381836 108.20532227 C180.28249977 108.2352401 180.28249977 108.2352401 178.87327576 108.26576233 C177.87224319 108.28247482 176.87121063 108.29918732 175.83984375 108.31640625 C174.82024063 108.33718735 173.80063751 108.35796844 172.75013733 108.37937927 C169.47932952 108.44498852 166.20843863 108.50381234 162.9375 108.5625 C160.72590272 108.60567442 158.51431397 108.64928834 156.30273438 108.69335938 C150.86857849 108.8006814 145.43433918 108.90242623 140 109 C140.48210937 109.94101563 140.96421875 110.88203125 141.4609375 111.8515625 C142.0991747 113.10926522 142.7371834 114.36708392 143.375 115.625 C143.69210937 116.24246094 144.00921875 116.85992187 144.3359375 117.49609375 C144.6453125 118.10839844 144.9546875 118.72070312 145.2734375 119.3515625 C145.55622559 119.90666504 145.83901367 120.46176758 146.13037109 121.03369141 C147.27198289 123.61497759 148.1074578 126.32237339 149 129 C154.28 129.33 159.56 129.66 165 130 C165.66 128.35 166.32 126.7 167 125 C171.03485494 122.31009671 174.26228652 122.22006118 179 123 C182.20879247 125.03005238 183.62927537 126.42299447 184.5078125 130.16015625 C184.85679663 134.70453652 184.43155073 136.48424425 181.4375 140.0625 C177.45664064 142.30625709 175.49411434 142.73540053 171 142 C168.24670979 140.20437595 166.47372539 138.94745078 165 136 C162.45058627 135.68758629 159.99638487 135.48696579 157.4375 135.375 C156.37112305 135.31699219 156.37112305 135.31699219 155.28320312 135.2578125 C153.52257575 135.16328217 151.76132272 135.08054183 150 135 C150.061875 136.134375 150.12375 137.26875 150.1875 138.4375 C150.19835031 144.53537367 148.36543413 149.9518488 145 155 C146.08269165 155.03758423 146.08269165 155.03758423 147.18725586 155.07592773 C150.437535 155.19151302 153.68749688 155.31440774 156.9375 155.4375 C158.07380859 155.47681641 159.21011719 155.51613281 160.38085938 155.55664062 C161.46044922 155.59853516 162.54003906 155.64042969 163.65234375 155.68359375 C165.15269165 155.73858032 165.15269165 155.73858032 166.68334961 155.79467773 C169 156 169 156 170 157 C170.09692695 158.73360243 170.13201459 160.47074266 170.140625 162.20703125 C170.16962891 163.7993457 170.16962891 163.7993457 170.19921875 165.42382812 C170.23289463 167.67104558 170.25128835 169.91854739 170.25390625 172.16601562 C170.19521869 178.52065304 170.19521869 178.52065304 173.484375 183.63671875 C174.31453125 184.08660156 175.1446875 184.53648437 176 185 C177.61320044 188.22640088 177.58810373 191.5114756 177 195 C174.60161784 198.31541064 172.92940514 199.68360676 169.0625 201 C165.25275797 201 163.19501129 200.033189 160 198 C157.54334803 194.31502204 157.29913509 191.28028214 158 187 C159.79363911 184.1899654 161.01880935 182.49059532 164 181 C164.33 174.4 164.66 167.8 165 161 C160.58140426 161.03329079 156.16761461 161.10083653 151.75 161.1875 C150.51507813 161.19330078 149.28015625 161.19910156 148.0078125 161.20507812 C140.35760084 161.38626735 134.4549567 162.52158562 127.52758789 165.81884766 C122.60481005 168.11928224 117.64032809 168.87868407 112.25 169.27734375 C105.22102708 169.46238141 105.22102708 169.46238141 99.39453125 172.66015625 C98.46288916 174.68295466 98.46288916 174.68295466 97.7890625 176.84375 C95.32507876 183.5770125 88.53157715 187.11096438 82.4296875 190.0546875 C80 191 80 191 75 192 C75 210.81 75 229.62 75 249 C82.59 249 90.18 249 98 249 C98.33 247.68 98.66 246.36 99 245 C102.69329658 242.53780228 105.7149344 242.20801317 110 243 C112.9838283 244.98921886 114.60276841 246.38502568 115.4765625 249.9375 C115.75890933 253.86063492 115.21925086 255.67112371 113 259 C108.84437903 261.77041398 106.93332128 261.70476018 102 261 C99.5 259.125 99.5 259.125 98 257 C98 256.34 98 255.68 98 255 C96.78098999 255.00785522 96.78098999 255.00785522 95.53735352 255.01586914 C91.87907678 255.03656994 88.22081233 255.04963803 84.5625 255.0625 C83.28310547 255.07087891 82.00371094 255.07925781 80.68554688 255.08789062 C78.86313477 255.09272461 78.86313477 255.09272461 77.00390625 255.09765625 C75.87799072 255.10289307 74.7520752 255.10812988 73.59204102 255.11352539 C71 255 71 255 70 254 C69.90613619 252.1281906 69.88256196 250.2528194 69.88647461 248.37866211 C69.88655014 247.17749252 69.88662567 245.97632294 69.88670349 244.73875427 C69.89186478 243.4314888 69.89702606 242.12422333 69.90234375 240.77734375 C69.90420802 239.43355868 69.90563188 238.08977293 69.90663147 236.74598694 C69.91045598 233.20317723 69.92028568 229.6604083 69.93133545 226.11761475 C69.94155101 222.50484773 69.9461294 218.89207416 69.95117188 215.27929688 C69.96190802 208.18617961 69.97950428 201.09309675 70 194 C64.06 194.99 58.12 195.98 52 197 C51.67 209.54 51.34 222.08 51 235 C52.32 235.66 53.64 236.32 55 237 C57.50031654 240.75047482 57.53603554 242.55856266 57 247 C54.71871506 249.99826021 53.03347588 251.61244655 49.5 252.9375 C45.56023367 253.03599416 43.10903973 251.99431148 40.1875 249.375 C38.45988071 245.91976142 38.27826331 242.78717744 39 239 C40.875 236.5 40.875 236.5 43 235 C43.66 235 44.32 235 45 235 C45 222.46 45 209.92 45 197 C32.63283665 196.72434505 32.63283665 196.72434505 27 202 C26.49648309 205.00028077 26.30113258 207.44996512 26.328125 210.44921875 C26.31537537 211.26244095 26.30262573 212.07566315 26.28948975 212.91352844 C26.2532044 215.50520804 26.25048074 218.09558871 26.25 220.6875 C26.22841345 223.28963906 26.20000806 225.89158023 26.16766357 228.49360657 C26.14984693 230.11169358 26.13961199 231.7298845 26.13751221 233.34806824 C26.1085166 238.8914834 26.1085166 238.8914834 25 240 C23.42414096 240.09666468 21.84442244 240.13199769 20.265625 240.140625 C19.29882812 240.15996094 18.33203125 240.17929687 17.3359375 240.19921875 C15.29446584 240.23281259 13.25268386 240.2512819 11.2109375 240.25390625 C5.0890805 240.32917507 5.0890805 240.32917507 0.015625 243.51171875 C-0.64953125 244.33285156 -1.3146875 245.15398437 -2 246 C-6.30274909 246.69151325 -8.20945312 246.51557405 -11.875 244.125 C-14.4383705 241.5616295 -14.95175854 240.73970243 -15.1875 237.125 C-15.00322294 234.05371571 -14.7058043 232.51381686 -13 230 C-9.83181244 227.88787496 -7.86780748 227.66843536 -4.1328125 227.44140625 C-2 228 -2 228 0.17578125 230.4765625 C4.10440011 233.98678073 7.22069277 233.7744227 12.3125 233.8125 C15.179375 233.874375 18.04625 233.93625 21 234 C21 224.76 21 215.52 21 206 C15.555 207.98 15.555 207.98 10 210 C-2.91714578 211.72906676 -13.43760495 208.37304941 -24.1015625 201.23828125 C-35.56036654 192.38936654 -45.94871305 181.17950431 -50 167 C-50.33 163.7 -50.66 160.4 -51 157 C-60.9 157 -70.8 157 -81 157 C-81 165.25 -81 173.5 -81 182 C-79.68 182.33 -78.36 182.66 -77 183 C-74.33396884 185.47560037 -74.01495208 186.83253672 -73.6875 190.5 C-74.14652015 195.64102564 -74.14652015 195.64102564 -76 198 C-79.42630805 200.3107659 -81.47321742 201 -85.625 201 C-89.70185063 199.79204426 -90.85721503 198.62625148 -93 195 C-94.03636536 192.03895611 -94.11835389 190.48525094 -93.375 187.4375 C-92 185 -92 185 -89.45825195 183.26855469 C-86.72528648 181.18540295 -86.72528648 181.18540295 -86.34057617 177.88378906 C-86.32486572 176.68979492 -86.30915527 175.49580078 -86.29296875 174.265625 C-86.26485107 173.09805664 -86.2367334 171.93048828 -86.20776367 170.72753906 C-86.19773315 168.51115723 -86.19773315 168.51115723 -86.1875 166.25 C-86.125625 161.5475 -86.06375 156.845 -86 152 C-74.12 152 -62.24 152 -50 152 C-49.505 149.03 -49.505 149.03 -49 146 C-48.76410156 145.32195312 -48.52820313 144.64390625 -48.28515625 143.9453125 C-47.85905514 141.03848577 -49.04247467 139.40797282 -50.4375 136.875 C-53 132.16893733 -53 132.16893733 -53 130 C-56.96 130 -60.92 130 -65 130 C-65.66 131.65 -66.32 133.3 -67 135 C-70.35872614 137.61234256 -73.89112621 137.43251303 -78 137 C-80.75329021 135.20437595 -82.52627461 133.94745078 -84 131 C-84.50761671 126.60065519 -84.25800237 124.45774614 -82.0625 120.5625 C-78.47846039 117.56360972 -76.70725908 117.16878864 -72.16015625 117.46484375 C-68.7092337 118.31977393 -67.06115087 120.20747302 -65 123 C-65 123.66 -65 124.32 -65 125 C-61.37 125 -57.74 125 -54 125 C-54.0928125 123.4840625 -54.0928125 123.4840625 -54.1875 121.9375 C-53.83866909 114.61205094 -50.56188016 110.3234379 -46 105 C-46.65597168 104.97494385 -47.31194336 104.9498877 -47.98779297 104.92407227 C-50.95040183 104.8082674 -53.91268031 104.68547114 -56.875 104.5625 C-57.90753906 104.52318359 -58.94007813 104.48386719 -60.00390625 104.44335938 C-60.99003906 104.40146484 -61.97617188 104.35957031 -62.9921875 104.31640625 C-63.90339355 104.27974854 -64.81459961 104.24309082 -65.75341797 104.20532227 C-68 104 -68 104 -70 103 C-70 94.75 -70 86.5 -70 78 C-71.32 77.34 -72.64 76.68 -74 76 C-76.57483119 73.51712707 -76.97960187 72.16027098 -77.4375 68.5625 C-76.93235165 64.44914913 -75.89538484 62.89538484 -73 60 C-69.85088521 58.42544261 -67.47991184 58.65200882 -64 59 C-60.32796014 61.3120251 -58.42340506 62.82940955 -56.9375 66.9375 C-57.01593536 70.78083267 -57.83775763 72.82871119 -60 76 C-62.475 76.99 -62.475 76.99 -65 78 C-65 84.6 -65 91.2 -65 98 C-60.80258814 97.97163911 -56.61056998 97.92786675 -52.41455078 97.84741211 C-50.99311403 97.82448571 -49.57151352 97.80989711 -48.14990234 97.80444336 C-38.81654668 97.7616298 -30.14690071 97.1122603 -22 92 C-20.22287171 89.8820328 -18.90544178 87.80325093 -17.53515625 85.40625 C-11.91643623 76.59929954 -2.49544569 70.72269756 7.56640625 68.41015625 C14.03743354 67.50887076 18.27383602 68.6547672 25 70 C25 50.2 25 30.4 25 10 C17.74 10 10.48 10 3 10 C2.34 11.32 1.68 12.64 1 14 C-0.625 15.8125 -0.625 15.8125 -3 17 C-7.72924231 17 -9.89252499 16.94135376 -13.5 13.875 C-15.41801815 10.19879854 -15.65812497 8.09499984 -15 4 C-10.21977502 -1.9429824 -7.07091369 -2.65159264 0 0 Z M33 75 C33.763125 75.7425 34.52625 76.485 35.3125 77.25 C41 83.06976744 41 83.06976744 41 87 C37.89267096 85.61439191 35.7586276 83.97369275 33.3125 81.625 C26.96242586 75.98048966 19.60573618 72.67965111 11 73 C1.09188543 74.38552496 -7.53401741 80.40270515 -13.5625 88.25 C-17.10879936 93.34320145 -19.07464439 97.65613153 -18 104 C-15.11236059 111.69548573 -8.45084528 116.47902083 -1.19042969 119.83691406 C1.91393431 121.17639257 5.03342207 122.43046099 8.19140625 123.640625 C9.11824219 124.08921875 10.04507813 124.5378125 11 125 C11.33 125.99 11.66 126.98 12 128 C3.502233 125.73570472 -3.75401048 123.01949456 -11 118 C-11.58523437 117.62230469 -12.17046875 117.24460938 -12.7734375 116.85546875 C-18.45765279 112.77264406 -21.56046696 105.70234201 -23 99 C-33.58308031 102.0773496 -42.42530053 106.12397102 -48.13671875 115.95703125 C-50.50553311 121.56286795 -49.18135448 127.1091138 -47 132.5625 C-46.34861956 134.04846164 -45.68729059 135.53030271 -45 137 C-44.01 137 -43.02 137 -42 137 C-40.7287377 135.53315888 -39.46238273 134.06032401 -38.26171875 132.53515625 C-36.69937162 130.63421995 -35.10958539 129.26575123 -33 128 C-32.01 128 -31.02 128 -30 128 C-31.4943132 131.56707022 -33.55147377 133.64222495 -36.375 136.25 C-42.35751415 142.0882413 -46.00684891 148.50611721 -46.3125 157 C-46.04659736 171.74551 -36.77955902 182.91450826 -26.64453125 192.70703125 C-22.40721952 196.38103714 -17.9130092 199.31203144 -13 202 C-12.03707031 202.54140625 -12.03707031 202.54140625 -11.0546875 203.09375 C-3.8558066 206.45946055 5.51562568 206.17133465 13.05078125 204.203125 C17.12431813 202.63405894 20.67127877 200.86285054 24 198 C24 197.34 24 196.68 24 196 C21.03 195.67 18.06 195.34 15 195 C14.67 194.01 14.34 193.02 14 192 C15.06210693 192.01571045 16.12421387 192.0314209 17.21850586 192.04760742 C21.24609466 192.10285386 25.27365185 192.13668572 29.30151367 192.16479492 C31.0284594 192.17966998 32.75536885 192.19997636 34.48217773 192.22631836 C53.45050809 192.50794422 76.01724914 191.66838146 90.890625 178.30078125 C95.0399975 173.81905609 96.91344514 169.60825567 97.0625 163.39453125 C96.77564305 156.89542841 95.46729062 151.8577479 91 147 C81.03549506 139.21885978 67.94200572 139.96165238 56 141 C50.27638871 141.949495 44.76212981 143.6090379 39.22851562 145.32421875 C35.63935839 146.41260473 32.01272053 147.33949616 28.375 148.25 C27.71967285 148.41564453 27.0643457 148.58128906 26.38916016 148.75195312 C21.59002938 149.93289753 16.92445339 150.64825333 12 151 C12.14295891 152.39613065 12.28951558 153.79189308 12.4375 155.1875 C12.51871094 155.96480469 12.59992188 156.74210937 12.68359375 157.54296875 C13.00772912 160.06001996 13.47532505 162.5177143 14 165 C15.30710937 164.7834375 15.30710937 164.7834375 16.640625 164.5625 C27.90132461 162.80758577 37.7427104 161.86112401 48.72265625 165.34375 C51.0854477 166.13844864 51.0854477 166.13844864 54 166 C54 166.99 54 167.98 54 169 C46.43861963 168.11783896 46.43861963 168.11783896 44.11254883 167.49291992 C35.10618016 165.39146859 21.24160045 165.66146669 13 170 C11.03271039 172.85065729 11.03271039 172.85065729 10 176 C4.96572344 181.03427656 -0.96423591 183.17643748 -8 183.1875 C-9.33395836 183.14018053 -10.66780204 183.08326237 -12 183 C-12.33 182.01 -12.66 181.02 -13 180 C-12.29875 179.97421875 -11.5975 179.9484375 -10.875 179.921875 C-3.71081007 179.49358104 2.46794618 178.54017348 7.69921875 173.296875 C9.49352774 170.12854561 9.36271867 167.682107 9.3125 164.0625 C9.30669922 162.25458984 9.30669922 162.25458984 9.30078125 160.41015625 C8.955596 155.9232204 8.955596 155.9232204 7 152 C4.32137478 151.06007882 2.01018282 150.43957627 -0.75 149.9375 C-6.36543245 148.86275148 -10.53832141 147.71105028 -15 144 C-15 143.01 -15 142.02 -15 141 C-12.30000274 142.00285612 -9.90221511 143.05962493 -7.4375 144.5625 C1.12868802 149.61435447 15.23117116 147.90994794 24.59667969 145.71850586 C27.760307 144.89028133 30.87749556 143.97447286 34 143 C34.98742187 142.69191406 35.97484375 142.38382812 36.9921875 142.06640625 C39.00591845 141.41084586 41.00562458 140.71227694 43 140 C42.60167969 139.49210937 42.20335937 138.98421875 41.79296875 138.4609375 C38.06210148 133.61353332 34.78977238 129.07724784 33.24609375 123.0625 C31.72133688 119.31513515 30.18287456 118.29133731 26.8125 116.125 C19.67696417 111.23687703 13.0722272 105.57558143 11.375 96.75 C11.25125 95.8425 11.1275 94.935 11 94 C12.32 94 13.64 94 15 94 C15.04125 94.825 15.0825 95.65 15.125 96.5 C17.20384063 104.81536253 23.98477462 110.51025575 31 115 C31.66 115 32.32 115 33 115 C33.33 113.02 33.66 111.04 34 109 C35.32 109 36.64 109 38 109 C37.835 109.639375 37.67 110.27875 37.5 110.9375 C36.07470722 119.66741829 37.23063714 125.43752962 42 133 C44.72648698 136.77496732 44.72648698 136.77496732 48.91796875 138.328125 C51.84104002 138.39393524 54.48081315 138.11267828 57.33984375 137.4921875 C68.42355257 135.44145723 80.90535404 136.55630172 90.5625 142.625 C91.16191406 143.05039063 91.76132812 143.47578125 92.37890625 143.9140625 C94.12936585 145.19048833 94.12936585 145.19048833 97 146 C104.42177277 142.22979216 112.23176587 135.53646825 116 128 C116.99 128 117.98 128 119 128 C116.7092352 136.14494152 109.5520598 141.64612382 103.015625 146.45703125 C102.35046875 146.96621094 101.6853125 147.47539062 101 148 C100.39027344 148.4125 99.78054688 148.825 99.15234375 149.25 C97.65305217 151.12261372 97.65305217 151.12261372 98.36328125 154.35546875 C98.67652344 155.62003906 98.98976563 156.88460937 99.3125 158.1875 C99.77076172 160.09595703 99.77076172 160.09595703 100.23828125 162.04296875 C100.48964844 163.01878906 100.74101562 163.99460937 101 165 C113.69269486 164.56531867 129.39784795 163.2842 139 154 C144.55059145 147.03824123 145.41599974 141.4062193 144.62109375 132.6328125 C142.2352453 118.67784986 133.3862291 104.45526264 121.9453125 96.171875 C116.74708672 93.04041369 110.85611473 93.26441486 105 94 C96.57322359 97.2255034 90.62456093 103.53824642 86.125 111.1875 C85.07545986 113.81135036 84.41042664 116.20909882 84 119 C83.34 119 82.68 119 82 119 C82 116.36 82 113.72 82 111 C80.91460937 110.50371094 79.82921875 110.00742188 78.7109375 109.49609375 C64.0368136 102.60569498 64.0368136 102.60569498 60 96 C59.125 92.5625 59.125 92.5625 59 90 C59.66 90 60.32 90 61 90 C61.97265625 91.5390625 61.97265625 91.5390625 63.0625 93.625 C66.84381578 99.95337419 73.07859591 103.71422766 80 106 C82.5321003 106.5573844 82.5321003 106.5573844 85 106 C87.25133699 103.98387694 87.25133699 103.98387694 89.25 101.3125 C93.3290101 96.4793872 97.25815833 93.57907782 103 91 C98.40686855 79.98164535 85.9031102 72.51109514 75.546875 67.91015625 C60.22789741 62.40648384 46.25739373 67.01282945 33 75 Z " fill="#003071" transform="translate(200,20)"/>
<path d="M0 0 C2.5625 0.3125 2.5625 0.3125 4.4375 1.5 C5.5625 3.3125 5.5625 3.3125 5.4375 5.875 C4.5625 8.3125 4.5625 8.3125 1.5625 10.3125 C-1.39826291 9.95361965 -2.28408021 9.46591979 -4.4375 7.3125 C-4.6875 4.8125 -4.6875 4.8125 -4.4375 2.3125 C-2.4375 0.3125 -2.4375 0.3125 0 0 Z " fill="#009CE3" transform="translate(132.4375,83.6875)"/>
<path d="M0 0 C2.5 0.25 2.5 0.25 4.5 2.25 C4.125 5.875 4.125 5.875 3.5 9.25 C1.1875 9.875 1.1875 9.875 -1.5 10.25 C-2.49 9.59 -3.48 8.93 -4.5 8.25 C-4.8125 5.25 -4.8125 5.25 -4.5 2.25 C-2.5 0.25 -2.5 0.25 0 0 Z " fill="#009CE3" transform="translate(367.5,205.75)"/>
<path d="M0 0 C3.125 0.375 3.125 0.375 6 1 C7.32841008 6.43440487 7.32841008 6.43440487 5.875 8.9375 C4 10 4 10 1.4375 9.875 C-1 9 -1 9 -3 6 C-2.64111965 3.03923709 -2.15341979 2.15341979 0 0 Z " fill="#009DE4" transform="translate(114,206)"/>
<path d="M0 0 C3.29714793 0.32971479 4.6226839 0.6226839 7 3 C6.9375 5.5 6.9375 5.5 6 8 C3.6875 9.5 3.6875 9.5 1 10 C-1.3125 8.625 -1.3125 8.625 -3 7 C-2.25 2.25 -2.25 2.25 0 0 Z " fill="#009EE5" transform="translate(382,84)"/>
<path d="M0 0 C2.5 0.25 2.5 0.25 4.5 2.25 C4.75 4.75 4.75 4.75 4.5 7.25 C2.5 9.25 2.5 9.25 0 9.5 C-2.5 9.25 -2.5 9.25 -4.5 7.25 C-4.75 4.75 -4.75 4.75 -4.5 2.25 C-2.5 0.25 -2.5 0.25 0 0 Z " fill="#00A1E9" transform="translate(374.5,147.75)"/>
<path d="M0 0 C2.5 0.25 2.5 0.25 4.5 2.25 C4.75 4.75 4.75 4.75 4.5 7.25 C2.5 9.25 2.5 9.25 0 9.5 C-2.5 9.25 -2.5 9.25 -4.5 7.25 C-4.75 4.75 -4.75 4.75 -4.5 2.25 C-2.5 0.25 -2.5 0.25 0 0 Z " fill="#00A1E8" transform="translate(125.5,142.75)"/>
<path d="M0 0 C2.625 0.375 2.625 0.375 5 1 C5.6875 3.3125 5.6875 3.3125 6 6 C4.5625 7.8125 4.5625 7.8125 3 9 C0.525 8.01 0.525 8.01 -2 7 C-2.125 4.625 -2.125 4.625 -2 2 C-1.34 1.34 -0.68 0.68 0 0 Z " fill="#009CE3" transform="translate(246,259)"/>
<path d="M0 0 C2.475 0.99 2.475 0.99 5 2 C5.125 4.375 5.125 4.375 5 7 C4.34 7.66 3.68 8.32 3 9 C0.375 8.625 0.375 8.625 -2 8 C-2.6875 5.6875 -2.6875 5.6875 -3 3 C-1.5625 1.1875 -1.5625 1.1875 0 0 Z " fill="#009CE3" transform="translate(193,23)"/>
<path d="M0 0 C1.99954746 -0.04254356 4.00041636 -0.04080783 6 0 C7 1 7 1 7.1875 3.4375 C7 6 7 6 5 8 C2.375 7.625 2.375 7.625 0 7 C-1.125 2.25 -1.125 2.25 0 0 Z " fill="#009EE5" transform="translate(303,39)"/>
<path d="M0 0 C2 0.8125 2 0.8125 3.25 2.875 C3.4975 3.514375 3.745 4.15375 4 4.8125 C3.01 6.2975 3.01 6.2975 2 7.8125 C-0.5 8.125 -0.5 8.125 -3 7.8125 C-3.66 7.1525 -4.32 6.4925 -5 5.8125 C-4.75 3.25 -4.75 3.25 -4 0.8125 C-2 -0.1875 -2 -0.1875 0 0 Z " fill="#009DE4" transform="translate(253,32.1875)"/>
<path d="M0 0 C0.78375 0.04125 1.5675 0.0825 2.375 0.125 C3 3 3 3 3.375 6.125 C2.715 6.785 2.055 7.445 1.375 8.125 C-1.25 7.75 -1.25 7.75 -3.625 7.125 C-4.25 4.75 -4.25 4.75 -4.625 2.125 C-2.625 0.125 -2.625 0.125 0 0 Z " fill="#00A1E8" transform="translate(194.625,252.875)"/>
<path d="M0 0 C2.625 0.375 2.625 0.375 5 1 C5.625 3.375 5.625 3.375 6 6 C5.34 6.66 4.68 7.32 4 8 C1.375 7.625 1.375 7.625 -1 7 C-1.625 4.625 -1.625 4.625 -2 2 C-1.34 1.34 -0.68 0.68 0 0 Z " fill="#00A2E9" transform="translate(304,268)"/>
</svg>
