<svg width="80" height="80" viewBox="0 0 80 80" fill="none" xmlns="http://www.w3.org/2000/svg">
<path d="M26.4865 4.72157C26.754 5.07832 27.0216 5.43508 27.2973 5.80265C30.9095 5.93643 30.9095 5.93643 34.5946 6.07292C34.6838 11.8702 34.773 17.6675 34.8649 23.6405C35.9351 23.1054 37.0054 22.5702 38.1081 22.0189C38.6432 21.8405 39.1784 21.6621 39.7297 21.4783C39.8189 18.1783 39.9081 14.8783 40 11.4783C39.554 11.2999 39.1081 11.1216 38.6486 10.9378C38.0671 10.2505 38.0719 9.6412 38.125 8.77562C38.2614 7.95588 38.3872 7.68324 38.9189 7.00197C40.0553 6.45744 40.9653 6.5233 42.1622 6.88373C42.942 7.56612 43.1683 8.29209 43.2432 9.31616C42.979 10.2411 42.6514 10.8771 41.8919 11.4783C41.7135 11.4783 41.5351 11.4783 41.3513 11.4783C41.3513 14.6891 41.3513 17.8999 41.3513 21.2081C42.5108 21.2081 43.6703 21.2081 44.8649 21.2081C45.3108 21.2972 45.7567 21.3864 46.2162 21.4783C46.2264 20.9769 46.2264 20.9769 46.2367 20.4654C46.2621 19.2298 46.2892 17.9943 46.3168 16.7588C46.3286 16.2232 46.3398 15.6876 46.3506 15.152C46.3662 14.3838 46.3834 13.6157 46.401 12.8476C46.4055 12.6066 46.41 12.3656 46.4147 12.1173C46.4557 10.428 46.4557 10.428 46.7567 10.127C47.1827 10.1008 47.6096 10.0913 48.0363 10.089C48.2976 10.0837 48.5589 10.0785 48.8281 10.0731C49.3799 10.0641 49.9317 10.0591 50.4835 10.0583C52.1354 10.0397 52.1354 10.0397 53.5008 9.17892C53.6834 8.95664 53.866 8.73436 54.054 8.50535C54.8095 8.26213 55.4487 8.31657 56.2162 8.50535C57.0244 9.04414 57.4535 9.42496 57.7059 10.3804C57.7575 10.9867 57.7341 11.4329 57.5676 12.0189C56.7885 12.9092 56.2861 13.3077 55.1182 13.5222C54.1411 13.3351 53.6808 12.9767 52.973 12.2891C52.8838 12.1108 52.7946 11.9324 52.7027 11.7486C51.0973 11.6594 49.4919 11.5702 47.8378 11.4783C47.8378 15.0459 47.8378 18.6135 47.8378 22.2891C48.6405 22.5567 48.6405 22.5567 49.4595 22.8297C51.5089 24.0353 53.7205 25.6447 55.1003 27.6006C55.8282 28.4033 56.2896 28.4605 57.348 28.6236C59.6889 29.0886 61.4217 30.2174 62.973 32.0189C62.973 32.1972 62.973 32.3756 62.973 32.5594C67.0757 32.5594 71.1784 32.5594 75.4054 32.5594C75.4054 30.3297 75.4054 28.0999 75.4054 25.8026C75.0486 25.6243 74.6919 25.4459 74.3243 25.2621C73.6399 24.436 73.5114 24.0308 73.5304 22.9479C73.8042 21.9439 74.0585 21.5731 74.8649 20.9378C75.627 20.5567 76.1811 20.6012 77.027 20.6675C77.7689 21.0047 78.2359 21.3035 78.75 21.9344C79.0106 22.8986 78.9249 23.7654 78.6486 24.7216C78.125 25.3972 78.125 25.3972 77.5676 25.8026C77.3892 25.8026 77.2108 25.8026 77.027 25.8026C77.0291 26.1567 77.0291 26.1567 77.0313 26.5178C77.0359 27.3907 77.0393 28.2636 77.0419 29.1365C77.0432 29.5148 77.0451 29.8931 77.0474 30.2714C77.0507 30.8141 77.0521 31.3568 77.0534 31.8996C77.0555 32.39 77.0555 32.39 77.0577 32.8903C77.027 33.6405 77.027 33.6405 76.7567 33.9108C76.3671 33.9438 75.9758 33.9588 75.5848 33.9662C75.2115 33.9743 75.2115 33.9743 74.8306 33.9826C74.5601 33.9871 74.2895 33.9916 74.0108 33.9963C73.7352 34.0019 73.4596 34.0075 73.1757 34.0133C72.2917 34.031 71.4077 34.0469 70.5236 34.0628C69.9259 34.0745 69.3282 34.0862 68.7305 34.0982C67.2618 34.1272 65.7931 34.1547 64.3243 34.181C64.4546 34.4354 64.5849 34.6897 64.7192 34.9517C64.8917 35.2916 65.0641 35.6316 65.2365 35.9716C65.3222 36.1384 65.4079 36.3053 65.4962 36.4773C65.5798 36.6428 65.6634 36.8082 65.7496 36.9787C65.826 37.1288 65.9024 37.2788 65.9812 37.4334C66.2897 38.131 66.5155 38.8627 66.7567 39.5864C68.1838 39.6756 69.6108 39.7648 71.0811 39.8567C71.2595 39.4108 71.4378 38.9648 71.6216 38.5054C72.7121 37.7784 73.5844 37.754 74.8649 37.9648C75.7321 38.5135 76.116 38.8899 76.3535 39.9C76.4478 41.1282 76.3328 41.6092 75.5236 42.5763C74.4477 43.1827 73.9173 43.2987 72.7027 43.0999C71.9586 42.6146 71.4794 42.2749 71.0811 41.4783C70.392 41.3939 69.7287 41.3397 69.0372 41.3094C68.7489 41.2937 68.7489 41.2937 68.4549 41.2777C67.9791 41.2522 67.5031 41.2298 67.027 41.2081C67.0437 41.5146 67.0605 41.8212 67.0777 42.1371C67.0806 43.7852 66.5852 45.2491 65.6757 46.6135C65.9683 46.6236 65.9683 46.6236 66.2668 46.634C67.1453 46.6652 68.0236 46.6984 68.902 46.7317C69.2091 46.7423 69.5162 46.753 69.8327 46.7639C70.1244 46.7752 70.4162 46.7865 70.7168 46.7982C71.1223 46.8131 71.1223 46.8131 71.536 46.8282C72.1622 46.8837 72.1622 46.8837 72.4324 47.154C72.4586 47.6225 72.4681 48.092 72.4704 48.5613C72.4783 48.9917 72.4783 48.9917 72.4863 49.4307C72.4954 50.0381 72.5003 50.6455 72.501 51.2529C72.4852 52.9704 72.4852 52.9704 73.3741 54.3531C73.5985 54.4747 73.8229 54.5963 74.054 54.7216C74.49 55.5936 74.4833 56.4814 74.3243 57.4243C73.6761 58.3203 73.2242 58.6901 72.179 59.0459C71.1494 59.0459 70.5932 58.7846 69.7297 58.2351C69.0658 57.2391 68.9998 56.4189 69.1892 55.2621C69.6739 54.5026 70.0051 54.0433 70.8108 53.6405C70.9 51.8567 70.9892 50.0729 71.0811 48.2351C69.8869 48.2441 68.6939 48.2623 67.5 48.2858C67.1662 48.2873 66.8325 48.2889 66.4886 48.2905C64.421 48.3395 62.8257 48.6463 60.9534 49.5375C59.6229 50.1592 58.2812 50.3645 56.8243 50.4722C54.9246 50.5222 54.9246 50.5222 53.3499 51.3865C53.0981 51.9332 53.0981 51.9332 52.916 52.5172C52.25 54.337 50.4139 55.2921 48.7648 56.0877C48.1081 56.3432 48.1081 56.3432 46.7567 56.6135C46.7567 61.6972 46.7567 66.781 46.7567 72.0189C48.8081 72.0189 50.8595 72.0189 52.973 72.0189C53.0622 71.6621 53.1513 71.3053 53.2432 70.9378C54.2414 70.2723 55.0581 70.1832 56.2162 70.3972C57.0226 70.9349 57.4602 71.3121 57.6964 72.2722C57.7727 73.3325 57.6268 73.8219 57.027 74.7216C55.9039 75.4703 55.3874 75.4526 54.054 75.2621C53.3784 74.7553 53.3784 74.7553 52.973 74.181C52.973 74.0026 52.973 73.8243 52.973 73.6405C52.6435 73.6426 52.6435 73.6426 52.3074 73.6448C51.3187 73.6504 50.3299 73.6539 49.3412 73.6574C48.9954 73.6596 48.6496 73.6619 48.2934 73.6642C47.8008 73.6655 47.8008 73.6655 47.2983 73.6669C46.994 73.6683 46.6897 73.6697 46.3762 73.6712C45.6757 73.6405 45.6757 73.6405 45.4054 73.3702C45.38 72.8643 45.3737 72.3575 45.3747 71.8509C45.3747 71.5263 45.3748 71.2017 45.3748 70.8672C45.3762 70.5139 45.3776 70.1605 45.379 69.7965C45.3795 69.4333 45.3799 69.0702 45.3802 68.707C45.3812 67.7494 45.3839 66.7919 45.3868 65.8344C45.3896 64.858 45.3908 63.8816 45.3922 62.9052C45.3951 60.9881 45.3999 59.071 45.4054 57.154C43.8 57.4216 42.1946 57.6891 40.5405 57.9648C40.4513 61.354 40.3622 64.7432 40.2703 68.2351C40.627 68.4135 40.9838 68.5918 41.3513 68.7756C42.0271 69.7893 42.0368 70.2779 41.8919 71.4783C41.2753 72.2887 40.8199 72.7249 39.8649 73.0831C38.8001 73.1097 38.1376 72.8281 37.348 72.1202C36.881 71.1864 36.832 70.3397 37.027 69.3162C37.5338 68.6405 37.5338 68.6405 38.1081 68.2351C38.2865 68.2351 38.4649 68.2351 38.6486 68.2351C38.6486 64.8459 38.6486 61.4567 38.6486 57.9648C35.3062 57.8903 35.3062 57.8903 33.7838 59.3162C33.6477 60.127 33.5949 60.7891 33.6022 61.5997C33.5987 61.8195 33.5953 62.0393 33.5917 62.2658C33.5819 62.9662 33.5812 63.6663 33.5811 64.3668C33.5752 65.0701 33.5676 65.7733 33.5588 66.4766C33.554 66.9139 33.5512 67.3513 33.5507 67.7886C33.5428 69.2868 33.5428 69.2868 33.2432 69.5864C32.8173 69.6126 32.3904 69.6221 31.9637 69.6244C31.7024 69.6297 31.4411 69.6349 31.1719 69.6403C30.6201 69.6494 30.0683 69.6543 29.5165 69.6551C27.8619 69.6754 27.8619 69.6754 26.4907 70.5355C26.3109 70.7575 26.1312 70.9794 25.9459 71.2081C24.783 71.3949 24.2677 71.3474 23.277 70.7013C22.5842 70.0085 22.4455 69.7863 22.3817 68.8094C22.4316 67.9793 22.5119 67.5631 22.973 66.8837C23.8292 66.3129 24.36 66.2536 25.3695 66.1922C25.9459 66.3432 25.9459 66.3432 26.534 67.0125C27.5958 67.9612 28.438 67.9038 29.8142 67.9141C30.589 67.9309 31.3638 67.9476 32.1622 67.9648C32.1622 65.4675 32.1622 62.9702 32.1622 60.3972C30.6905 60.9324 30.6905 60.9324 29.1892 61.4783C25.6981 61.9456 22.8547 61.0386 19.9725 59.1103C16.8756 56.7187 14.0679 53.689 12.973 49.8567C12.8838 48.9648 12.7946 48.0729 12.7027 47.154C10.027 47.154 7.35134 47.154 4.59459 47.154C4.59459 49.3837 4.59459 51.6135 4.59459 53.9108C4.95134 53.9999 5.3081 54.0891 5.67567 54.181C6.39622 54.8501 6.48244 55.2168 6.57094 56.2081C6.44688 57.5975 6.44688 57.5975 5.94594 58.2351C5.01991 58.8596 4.46669 59.0459 3.34459 59.0459C2.24274 58.7194 1.93048 58.4043 1.35134 57.4243C1.07125 56.624 1.04909 56.2041 1.24999 55.3803C1.62161 54.7216 1.62161 54.7216 2.30857 54.2536C3.04721 53.6906 3.04721 53.6906 3.15119 52.7983C3.15543 52.4756 3.15968 52.1529 3.16406 51.8204C3.17166 51.5048 3.17925 51.1893 3.18708 50.8641C3.1898 50.2651 3.1898 50.2651 3.19256 49.654C3.20928 48.3831 3.22601 47.1121 3.24324 45.8026C6.45405 45.8026 9.66486 45.8026 12.973 45.8026C13.1067 44.9999 13.1067 44.9999 13.2432 44.181C13.307 43.9978 13.3707 43.8145 13.4364 43.6257C13.5516 42.8401 13.2318 42.3994 12.8547 41.7148C12.1622 40.4429 12.1622 40.4429 12.1622 39.8567C11.0919 39.8567 10.0216 39.8567 8.91891 39.8567C8.74053 40.3026 8.56216 40.7486 8.37837 41.2081C7.47061 41.9141 6.5159 41.8655 5.4054 41.7486C4.66127 41.2633 4.18208 40.9236 3.78378 40.127C3.64658 38.938 3.71405 38.3588 4.30743 37.306C5.27608 36.4955 5.75479 36.3888 6.98373 36.4688C7.91642 36.6999 8.36184 37.2101 8.91891 37.9648C8.91891 38.1432 8.91891 38.3216 8.91891 38.5054C9.89999 38.5054 10.8811 38.5054 11.8919 38.5054C11.8668 38.0956 11.8668 38.0956 11.8412 37.6776C11.9355 35.6978 12.8211 34.5387 14.054 33.0999C13.8768 33.0932 13.6995 33.0864 13.5168 33.0794C12.7161 33.0481 11.9155 33.0149 11.1149 32.9817C10.8358 32.9711 10.5567 32.9605 10.2692 32.9495C10.0027 32.9382 9.73616 32.9269 9.46156 32.9152C9.21529 32.9053 8.96902 32.8954 8.71529 32.8852C8.1081 32.8297 8.1081 32.8297 7.56756 32.5594C7.56756 30.3297 7.56756 28.0999 7.56756 25.8026C7.2108 25.6243 6.85405 25.4459 6.48648 25.2621C5.79058 24.5911 5.68118 24.2243 5.55743 23.252C5.69395 22.1403 5.97421 21.7203 6.75675 20.9378C7.60786 20.5122 8.24867 20.5735 9.18918 20.6675C10.1816 21.2924 10.6964 21.7025 11.098 22.8128C11.0768 23.8515 10.8547 24.405 10.2703 25.2621C9.60134 25.5297 9.60134 25.5297 8.91891 25.8026C8.91891 27.5864 8.91891 29.3702 8.91891 31.2081C10.0533 31.2004 11.1863 31.1886 12.3204 31.1668C12.7046 31.1606 13.0888 31.1567 13.473 31.1552C15.9955 31.1436 18.3387 30.9681 20.5405 29.5864C21.0208 29.014 21.3769 28.4522 21.7472 27.8043C23.2658 25.4241 25.812 23.8358 28.5315 23.2108C30.2804 22.9672 31.4254 23.2769 33.2432 23.6405C33.2432 18.2891 33.2432 12.9378 33.2432 7.42427C31.2811 7.42427 29.3189 7.42427 27.2973 7.42427C27.1189 7.78103 26.9405 8.13778 26.7567 8.50535C26.3176 8.99522 26.3176 8.99522 25.6757 9.31616C24.3975 9.31616 23.8128 9.30031 22.8378 8.47157C22.3194 7.478 22.2546 6.90941 22.4324 5.80265C23.7244 4.19644 24.5754 4.00492 26.4865 4.72157Z" fill="#00A2E9" stroke="#00A2E9" stroke-width="0"/>
<path d="M26.4502 4.84858C26.7178 5.20534 26.9854 5.5621 27.261 5.92966C30.8732 6.06345 30.8732 6.06345 34.5583 6.19993C34.6475 11.9972 34.7367 17.7945 34.8286 23.7675C35.8989 23.2324 36.9691 22.6972 38.0718 22.1459C38.607 21.9675 39.1421 21.7891 39.6935 21.6053C39.7827 18.3053 39.8718 15.0053 39.9637 11.6053C39.5178 11.427 39.0718 11.2486 38.6124 11.0648C38.0309 10.3776 38.0356 9.76822 38.0887 8.90264C38.2251 8.0829 38.3509 7.81025 38.8827 7.12899C40.0191 6.58445 40.9291 6.65031 42.1259 7.01074C42.9058 7.69313 43.132 8.41911 43.207 9.44318C42.9427 10.3681 42.6151 11.0041 41.8556 11.6053C41.6773 11.6053 41.4989 11.6053 41.3151 11.6053C41.3151 14.8161 41.3151 18.027 41.3151 21.3351C42.4745 21.3351 43.634 21.3351 44.8286 21.3351C45.2745 21.4243 45.7205 21.5134 46.18 21.6053C46.1901 21.1039 46.1901 21.1039 46.2005 20.5924C46.2259 19.3569 46.2529 18.1213 46.2806 16.8858C46.2923 16.3502 46.3036 15.8146 46.3144 15.279C46.3299 14.5108 46.3471 13.7427 46.3647 12.9746C46.3692 12.7336 46.3737 12.4927 46.3784 12.2444C46.4194 10.555 46.4194 10.555 46.7205 10.254C47.1464 10.2279 47.5734 10.2183 48.0001 10.216C48.2614 10.2108 48.5226 10.2055 48.7919 10.2001C49.3436 10.1911 49.8954 10.1861 50.4473 10.1854C52.0991 10.1667 52.0991 10.1667 53.4646 9.30593C53.6471 9.08365 53.8297 8.86138 54.0178 8.63237C54.7732 8.38914 55.4124 8.44358 56.18 8.63237C56.9881 9.17116 57.4173 9.55198 57.6696 10.5074C57.7213 11.1137 57.6979 11.5599 57.5313 12.1459C56.7523 13.0362 56.2498 13.4348 55.082 13.6493C54.1049 13.4622 53.6445 13.1037 52.9367 12.4162C52.8475 12.2378 52.7583 12.0594 52.6664 11.8756C51.061 11.7864 49.4556 11.6972 47.8016 11.6053C47.8016 15.1729 47.8016 18.7405 47.8016 22.4162C48.6043 22.6837 48.6043 22.6837 49.4232 22.9567C51.4727 24.1623 53.6843 25.7717 55.064 27.7276C55.792 28.5303 56.2534 28.5875 57.3117 28.7506C59.6527 29.2157 61.3855 30.3445 62.9367 32.1459C62.9367 32.3243 62.9367 32.5026 62.9367 32.6864C67.0394 32.6864 71.1421 32.6864 75.3691 32.6864C75.3691 30.4567 75.3691 28.227 75.3691 25.9297C75.0124 25.7513 74.6556 25.5729 74.2881 25.3891C73.6036 24.5631 73.4751 24.1578 73.4941 23.0749C73.768 22.0709 74.0223 21.7001 74.8286 21.0648C75.5908 20.6837 76.1448 20.7282 76.9908 20.7945C77.7326 21.1317 78.1997 21.4305 78.7137 22.0614C78.9743 23.0256 78.8887 23.8924 78.6124 24.8486C78.0887 25.5243 78.0887 25.5243 77.5313 25.9297C77.3529 25.9297 77.1745 25.9297 76.9908 25.9297C76.9929 26.2837 76.9929 26.2837 76.9951 26.6449C76.9997 27.5177 77.003 28.3906 77.0056 29.2635C77.007 29.6418 77.0088 30.0201 77.0112 30.3984C77.0144 30.9411 77.0158 31.4839 77.0172 32.0266C77.0193 32.517 77.0193 32.517 77.0214 33.0173C76.9908 33.7675 76.9908 33.7675 76.7205 34.0378C76.3308 34.0708 75.9396 34.0858 75.5486 34.0933C75.1752 34.1014 75.1752 34.1014 74.7943 34.1096C74.5238 34.1141 74.2533 34.1186 73.9745 34.1233C73.6989 34.1289 73.4234 34.1345 73.1394 34.1403C72.2554 34.158 71.3714 34.1739 70.4874 34.1898C69.8897 34.2015 69.2919 34.2133 68.6942 34.2252C67.2255 34.2542 65.7568 34.2817 64.2881 34.308C64.4184 34.5624 64.5487 34.8167 64.6829 35.0787C64.8554 35.4187 65.0278 35.7586 65.2002 36.0986C65.2859 36.2655 65.3716 36.4323 65.4599 36.6043C65.5436 36.7698 65.6272 36.9353 65.7133 37.1058C65.7897 37.2558 65.8662 37.4058 65.9449 37.5604C66.2535 38.258 66.4793 38.9898 66.7205 39.7134C68.1475 39.8026 69.5745 39.8918 71.0448 39.9837C71.2232 39.5378 71.4016 39.0918 71.5854 38.6324C72.6759 37.9054 73.5481 37.881 74.8286 38.0918C75.6958 38.6405 76.0798 39.017 76.3172 40.027C76.4115 41.2552 76.2966 41.7362 75.4874 42.7033C74.4115 43.3097 73.8811 43.4257 72.6664 43.227C71.9223 42.7417 71.4431 42.4019 71.0448 41.6053C70.3558 41.5209 69.6925 41.4667 69.0009 41.4364C68.7127 41.4207 68.7127 41.4207 68.4187 41.4047C67.9428 41.3792 67.4668 41.3568 66.9908 41.3351C67.0075 41.6417 67.0242 41.9482 67.0414 42.2641C67.0444 43.9122 66.549 45.3761 65.6394 46.7405C65.932 46.7506 65.932 46.7506 66.2306 46.761C67.109 46.7922 67.9874 46.8255 68.8658 46.8587C69.1729 46.8693 69.48 46.88 69.7964 46.8909C70.0882 46.9022 70.38 46.9136 70.6806 46.9252C71.0861 46.9401 71.0861 46.9401 71.4998 46.9553C72.1259 47.0107 72.1259 47.0107 72.3962 47.281C72.4224 47.7496 72.4318 48.2191 72.4342 48.6883C72.442 49.1187 72.442 49.1187 72.45 49.5577C72.4591 50.1651 72.4641 50.7725 72.4648 51.3799C72.4489 53.0974 72.4489 53.0974 73.3379 54.4801C73.5623 54.6017 73.7866 54.7233 74.0178 54.8486C74.4538 55.7206 74.447 56.6084 74.2881 57.5513C73.6399 58.4473 73.1879 58.8171 72.1428 59.1729C71.1131 59.1729 70.557 58.9116 69.6935 58.3621C69.0295 57.3662 68.9635 56.546 69.1529 55.3891C69.6377 54.6297 69.9688 54.1704 70.7746 53.7675C70.8637 51.9837 70.9529 50.1999 71.0448 48.3621C69.8506 48.3711 68.6577 48.3894 67.4637 48.4128C67.13 48.4143 66.7962 48.4159 66.4523 48.4175C64.3847 48.4665 62.7894 48.7733 60.9171 49.6645C59.5867 50.2862 58.2449 50.4915 56.7881 50.5992C54.8883 50.6492 54.8883 50.6492 53.3136 51.5135C53.0618 52.0602 53.0618 52.0602 52.8797 52.6442C52.2138 54.464 50.3777 55.4191 48.7285 56.2147C48.0718 56.4702 48.0718 56.4702 46.7205 56.7405C46.7205 61.8243 46.7205 66.908 46.7205 72.1459C48.7718 72.1459 50.8232 72.1459 52.9367 72.1459C53.0259 71.7891 53.1151 71.4324 53.207 71.0648C54.2052 70.3993 55.0218 70.3102 56.18 70.5243C56.9864 71.0619 57.4239 71.4391 57.6601 72.3993C57.7364 73.4596 57.5906 73.9489 56.9908 74.8486C55.8676 75.5973 55.3511 75.5796 54.0178 75.3891C53.3421 74.8824 53.3421 74.8824 52.9367 74.308C52.9367 74.1297 52.9367 73.9513 52.9367 73.7675C52.6072 73.7696 52.6072 73.7696 52.2711 73.7718C51.2824 73.7774 50.2937 73.7809 49.305 73.7844C48.9592 73.7867 48.6134 73.7889 48.2571 73.7913C47.7646 73.7926 47.7646 73.7926 47.2621 73.7939C46.9578 73.7953 46.6535 73.7967 46.34 73.7982C45.6394 73.7675 45.6394 73.7675 45.3691 73.4972C45.3438 72.9913 45.3374 72.4845 45.3385 71.978C45.3385 71.6533 45.3385 71.3287 45.3385 70.9942C45.3399 70.6409 45.3413 70.2876 45.3428 69.9235C45.3433 69.5604 45.3436 69.1972 45.3439 68.834C45.3449 67.8765 45.3476 66.919 45.3506 65.9615C45.3533 64.985 45.3546 64.0086 45.3559 63.0322C45.3588 61.1151 45.3636 59.1981 45.3691 57.281C43.7637 57.5486 42.1583 57.8162 40.5043 58.0918C40.4151 61.481 40.3259 64.8702 40.234 68.3621C40.5908 68.5405 40.9475 68.7189 41.3151 68.9026C41.9909 69.9163 42.0005 70.405 41.8556 71.6053C41.2391 72.4157 40.7836 72.852 39.8286 73.2101C38.7638 73.2367 38.1013 72.9552 37.3117 72.2472C36.8448 71.3134 36.7957 70.4667 36.9908 69.4432C37.4975 68.7675 37.4975 68.7675 38.0718 68.3621C38.2502 68.3621 38.4286 68.3621 38.6124 68.3621C38.6124 64.9729 38.6124 61.5837 38.6124 58.0918C35.2699 58.0173 35.2699 58.0173 33.7475 59.4432C33.6114 60.2541 33.5586 60.9161 33.5659 61.7268C33.5625 61.9465 33.559 62.1663 33.5555 62.3928C33.5457 63.0932 33.5449 63.7933 33.5448 64.4939C33.539 65.1971 33.5313 65.9004 33.5226 66.6036C33.5177 67.0409 33.515 67.4783 33.5144 67.9156C33.5066 69.4139 33.5066 69.4138 33.207 69.7134C32.7811 69.7396 32.3541 69.7491 31.9274 69.7515C31.6661 69.7567 31.4048 69.7619 31.1356 69.7673C30.5839 69.7764 30.032 69.7814 29.4802 69.7821C27.8256 69.8024 27.8257 69.8024 26.4544 70.6626C26.2747 70.8845 26.0949 71.1064 25.9097 71.3351C24.7468 71.522 24.2315 71.4744 23.2408 70.8283C22.548 70.1355 22.4092 69.9134 22.3455 68.9364C22.3953 68.1063 22.4757 67.6902 22.9367 67.0107C23.793 66.4399 24.3238 66.3806 25.3332 66.3192C25.9097 66.4702 25.9097 66.4702 26.4977 67.1395C27.5595 68.0883 28.4018 68.0309 29.7779 68.0412C30.5528 68.0579 31.3276 68.0746 32.1259 68.0918C32.1259 65.5945 32.1259 63.0972 32.1259 60.5243C30.6543 61.0594 30.6543 61.0594 29.1529 61.6053C25.6618 62.0727 22.8184 61.1656 19.9363 59.2373C16.8393 56.8457 14.0317 53.816 12.9367 49.9837C12.8475 49.0918 12.7583 48.1999 12.6664 47.281C9.99076 47.281 7.31509 47.281 4.55833 47.281C4.55833 49.5107 4.55833 51.7405 4.55833 54.0378C4.91509 54.127 5.27185 54.2162 5.63941 54.308C6.35996 54.9771 6.44618 55.3439 6.53468 56.3351C6.41062 57.7245 6.41062 57.7245 5.90968 58.3621C4.98365 58.9866 4.43044 59.1729 3.30833 59.1729C2.20648 58.8464 1.89422 58.5314 1.31509 57.5513C1.03499 56.751 1.01283 56.3311 1.21374 55.5074C1.58536 54.8486 1.58536 54.8486 2.27232 54.3806C3.01096 53.8176 3.01096 53.8176 3.11493 52.9253C3.11918 52.6026 3.12343 52.2799 3.1278 51.9474C3.1354 51.6318 3.143 51.3163 3.15083 50.9912C3.15354 50.3921 3.15354 50.3921 3.15631 49.781C3.17303 48.5101 3.18975 47.2391 3.20698 45.9297C6.41779 45.9297 9.6286 45.9297 12.9367 45.9297C13.0705 45.127 13.0705 45.127 13.207 44.308C13.2707 44.1248 13.3345 43.9415 13.4002 43.7527C13.5153 42.9671 13.1955 42.5264 12.8185 41.8418C12.1259 40.5699 12.1259 40.5699 12.1259 39.9837C11.0556 39.9837 9.98536 39.9837 8.88266 39.9837C8.70428 40.4297 8.5259 40.8756 8.34212 41.3351C7.43435 42.0411 6.47965 41.9925 5.36914 41.8756C4.62501 41.3903 4.14583 41.0506 3.74752 40.254C3.61033 39.065 3.67779 38.4858 4.27117 37.433C5.23983 36.6225 5.71853 36.5158 6.94748 36.5958C7.88016 36.8269 8.32559 37.3371 8.88266 38.0918C8.88266 38.2702 8.88266 38.4486 8.88266 38.6324C9.86374 38.6324 10.8448 38.6324 11.8556 38.6324C11.8305 38.2227 11.8305 38.2227 11.805 37.8047C11.8992 35.8248 12.7849 34.6657 14.0178 33.227C13.8405 33.2202 13.6632 33.2134 13.4805 33.2064C12.6798 33.1751 11.8792 33.142 11.0786 33.1087C10.7995 33.0981 10.5205 33.0875 10.233 33.0765C9.96643 33.0652 9.69991 33.0539 9.42531 33.0422C9.17904 33.0323 8.93277 33.0224 8.67903 33.0122C8.07185 32.9567 8.07185 32.9567 7.53131 32.6864C7.53131 30.4567 7.53131 28.227 7.53131 25.9297C7.17455 25.7513 6.81779 25.5729 6.45022 25.3891C5.75432 24.7181 5.64493 24.3514 5.52117 23.379C5.6577 22.2673 5.93796 21.8473 6.7205 21.0648C7.57161 20.6392 8.21241 20.7005 9.15293 20.7945C10.1454 21.4194 10.6601 21.8295 11.0617 22.9398C11.0405 23.9785 10.8184 24.532 10.234 25.3891C9.56509 25.6567 9.56509 25.6567 8.88266 25.9297C8.88266 27.7134 8.88266 29.4972 8.88266 31.3351C10.0171 31.3274 11.1501 31.3156 12.2841 31.2938C12.6683 31.2876 13.0525 31.2837 13.4367 31.2822C15.9593 31.2706 18.3024 31.0951 20.5043 29.7135C20.9846 29.141 21.3406 28.5792 21.711 27.9314C23.2296 25.5511 25.7758 23.9628 28.4952 23.3378C30.2441 23.0942 31.3891 23.4039 33.207 23.7675C33.207 18.4162 33.207 13.0648 33.207 7.55129C31.2448 7.55129 29.2827 7.55129 27.261 7.55129C27.0827 7.90804 26.9043 8.2648 26.7205 8.63237C26.2813 9.12223 26.2813 9.12223 25.6394 9.44318C24.3612 9.44318 23.7766 9.42733 22.8016 8.59858C22.2832 7.60501 22.2183 7.03642 22.3962 5.92966C23.6881 4.32345 24.5392 4.13194 26.4502 4.84858ZM35.3691 25.1189C35.5754 25.3195 35.7816 25.5202 35.9941 25.727C37.5313 27.2999 37.5313 27.2999 37.5313 28.3621C36.6915 27.9876 36.1147 27.5442 35.4536 26.9094C33.7374 25.3839 31.7491 24.4917 29.4232 24.5783C26.7453 24.9528 24.414 26.579 22.7847 28.6999C21.8262 30.0765 21.2949 31.2421 21.5854 32.9567C22.3658 35.0366 24.1662 36.3294 26.1285 37.2369C26.9675 37.599 27.8106 37.9379 28.6641 38.265C28.9146 38.3862 29.1651 38.5075 29.4232 38.6324C29.5124 38.8999 29.6016 39.1675 29.6935 39.4432C27.3968 38.8312 25.4356 38.0971 23.4773 36.7405C23.3191 36.6384 23.1609 36.5363 22.9979 36.4311C21.4617 35.3277 20.6231 33.4168 20.234 31.6053C17.3737 32.4371 14.9839 33.5307 13.4403 36.1883C12.8001 37.7034 13.158 39.2024 13.7475 40.6763C13.9236 41.0779 14.1023 41.4784 14.2881 41.8756C14.5556 41.8756 14.8232 41.8756 15.0989 41.8756C15.4425 41.4792 15.7847 41.0811 16.1092 40.6689C16.5315 40.1551 16.9611 39.7853 17.5313 39.4432C17.7989 39.4432 18.0664 39.4432 18.3421 39.4432C17.9382 40.4072 17.3823 40.9681 16.6191 41.6729C15.0022 43.2508 14.0159 44.9854 13.9333 47.281C14.0052 51.2663 16.5098 54.2849 19.249 56.9316C20.3942 57.9245 21.6089 58.7167 22.9367 59.4432C23.197 59.5895 23.197 59.5895 23.4625 59.7388C25.4081 60.6484 27.9409 60.5706 29.9775 60.0386C31.0784 59.6145 32.0371 59.1358 32.9367 58.3621C32.9367 58.1837 32.9367 58.0053 32.9367 57.8216C32.134 57.7324 31.3313 57.6432 30.5043 57.5513C30.4151 57.2837 30.3259 57.0162 30.234 56.7405C30.5211 56.7447 30.8081 56.749 31.1039 56.7533C32.1924 56.7683 33.2809 56.7774 34.3696 56.785C34.8363 56.789 35.303 56.7945 35.7697 56.8016C40.8963 56.8778 46.9954 56.6509 51.0153 53.038C52.1367 51.8267 52.643 50.6887 52.6833 49.0093C52.6058 47.2528 52.2522 45.8912 51.0448 44.5783C48.3517 42.4753 44.8129 42.6761 41.5854 42.9567C40.0384 43.2133 38.5481 43.6618 37.0525 44.1254C36.0825 44.4196 35.1023 44.6701 34.1191 44.9162C33.942 44.9609 33.7649 45.0057 33.5824 45.0518C32.2854 45.371 31.0244 45.5643 29.6935 45.6594C29.7321 46.0367 29.7717 46.414 29.8117 46.7912C29.8337 47.0012 29.8556 47.2113 29.8782 47.4278C29.9658 48.1081 30.0922 48.7723 30.234 49.4432C30.5873 49.3846 30.5873 49.3846 30.9477 49.3249C33.9911 48.8506 36.651 48.5948 39.6185 49.5361C40.2571 49.7509 40.2571 49.7509 41.0448 49.7134C41.0448 49.981 41.0448 50.2486 41.0448 50.5243C39.0012 50.2858 39.0012 50.2858 38.3725 50.1169C35.9384 49.549 32.1912 49.622 29.9637 50.7945C29.432 51.565 29.432 51.565 29.1529 52.4162C27.7923 53.7768 26.1896 54.3557 24.2881 54.3587C23.9275 54.3459 23.567 54.3305 23.207 54.308C23.1178 54.0405 23.0286 53.7729 22.9367 53.4972C23.1262 53.4903 23.3158 53.4833 23.511 53.4761C25.4473 53.3604 27.1172 53.1027 28.5311 51.6856C29.016 50.8293 28.9807 50.1681 28.9671 49.1898C28.9655 48.7012 28.9655 48.7012 28.9639 48.2027C28.8707 46.99 28.8707 46.99 28.3421 45.9297C27.6182 45.6756 26.9935 45.5079 26.2475 45.3722C24.7298 45.0818 23.602 44.7705 22.3962 43.7675C22.3962 43.4999 22.3962 43.2324 22.3962 42.9567C23.1259 43.2277 23.7739 43.5133 24.4401 43.9195C26.7553 45.2849 30.5668 44.8242 33.098 44.232C33.953 44.0081 34.7955 43.7606 35.6394 43.4972C35.9063 43.414 36.1732 43.3307 36.4481 43.2449C36.9924 43.0677 37.5328 42.8789 38.0718 42.6864C37.9642 42.5492 37.8565 42.4119 37.7456 42.2705C36.7373 40.9603 35.8529 39.7343 35.4357 38.1087C35.0236 37.0959 34.6078 36.8192 33.6968 36.2337C31.7683 34.9126 29.9833 33.3825 29.5245 30.9972C29.4911 30.752 29.4577 30.5067 29.4232 30.254C29.78 30.254 30.1367 30.254 30.5043 30.254C30.5154 30.477 30.5266 30.6999 30.5381 30.9297C31.0999 33.1771 32.9326 34.7162 34.8286 35.9297C35.007 35.9297 35.1854 35.9297 35.3691 35.9297C35.4583 35.3945 35.5475 34.8594 35.6394 34.308C35.9962 34.308 36.3529 34.308 36.7205 34.308C36.6759 34.4808 36.6313 34.6537 36.5854 34.8317C36.2001 37.1911 36.5126 38.7506 37.8016 40.7945C38.5385 41.8148 38.5385 41.8148 39.6713 42.2346C40.4613 42.2523 41.1748 42.1763 41.9475 42.0086C44.9431 41.4544 48.3165 41.7557 50.9266 43.3959C51.0886 43.5109 51.2506 43.6258 51.4175 43.7443C51.8906 44.0893 51.8906 44.0893 52.6664 44.308C54.6723 43.2891 56.7831 41.4801 57.8016 39.4432C58.0691 39.4432 58.3367 39.4432 58.6124 39.4432C57.9933 41.6445 56.0589 43.1313 54.2923 44.4316C54.1125 44.5692 53.9327 44.7068 53.7475 44.8486C53.5827 44.9601 53.4179 45.0716 53.2482 45.1864C52.8429 45.6925 52.8429 45.6925 53.0349 46.5663C53.1196 46.9081 53.2042 47.2498 53.2914 47.602C53.4153 48.1178 53.4153 48.1178 53.5417 48.644C53.6096 48.9077 53.6775 49.1715 53.7475 49.4432C57.178 49.3257 61.4226 48.9794 64.0178 46.4702C65.518 44.5886 65.7518 43.0665 65.537 40.6953C64.8922 36.9237 62.5006 33.0797 59.4084 30.841C58.0035 29.9946 56.4113 30.0552 54.8286 30.254C52.5511 31.1257 50.9434 32.8319 49.7273 34.8993C49.4436 35.6084 49.2639 36.2564 49.1529 37.0107C48.9745 37.0107 48.7962 37.0107 48.6124 37.0107C48.6124 36.2972 48.6124 35.5837 48.6124 34.8486C48.319 34.7145 48.0257 34.5803 47.7234 34.4421C43.7575 32.5799 43.7575 32.5799 42.6664 30.7945C42.43 29.8655 42.43 29.8655 42.3962 29.1729C42.5745 29.1729 42.7529 29.1729 42.9367 29.1729C43.1996 29.5889 43.1996 29.5889 43.4941 30.1526C44.5161 31.863 46.2012 32.8795 48.0718 33.4972C48.7562 33.6479 48.7562 33.6479 49.4232 33.4972C50.0317 32.9523 50.0317 32.9523 50.5718 32.2303C51.6743 30.9241 52.7362 30.1402 54.2881 29.4432C53.0467 26.4652 49.6673 24.4462 46.8683 23.2027C42.728 21.7152 38.9522 22.9602 35.3691 25.1189Z" fill="#003071"/>
<path d="M8.22638 21.9344C8.91895 22.0189 8.91895 22.0189 9.4257 22.3398C9.72976 22.8297 9.72976 22.8297 9.69597 23.5223C9.45949 24.181 9.45949 24.181 8.64868 24.7216C7.84847 24.6246 7.60906 24.4928 7.02706 23.9108C6.95949 23.2351 6.95949 23.2351 7.02706 22.5594C7.5676 22.0189 7.5676 22.0189 8.22638 21.9344Z" fill="#009CE3"/>
<path d="M71.7567 54.9243C72.4324 54.9919 72.4324 54.9919 72.973 55.5324C72.8716 56.5121 72.8716 56.5121 72.7027 57.4243C72.0777 57.5932 72.0777 57.5932 71.3513 57.6946C71.0838 57.5162 70.8162 57.3378 70.5405 57.154C70.4561 56.3432 70.4561 56.3432 70.5405 55.5324C71.0811 54.9919 71.0811 54.9919 71.7567 54.9243Z" fill="#009CE3"/>
<path d="M3.24324 54.9919C4.08784 55.0932 4.08784 55.0932 4.86487 55.2621C5.2239 56.7309 5.2239 56.7309 4.83108 57.4074C4.32433 57.6946 4.32433 57.6946 3.63176 57.6608C2.97297 57.4243 2.97297 57.4243 2.43243 56.6135C2.52943 55.8133 2.66124 55.5739 3.24324 54.9919Z" fill="#009DE4"/>
<path d="M75.6757 22.0189C76.5668 22.108 76.9251 22.1872 77.5676 22.8297C77.5507 23.5054 77.5507 23.5054 77.2973 24.1811C76.6723 24.5865 76.6723 24.5865 75.9459 24.7216C75.3209 24.35 75.3209 24.35 74.8649 23.9108C75.0676 22.627 75.0676 22.627 75.6757 22.0189Z" fill="#009EE5"/>
<path d="M73.6487 39.2486C74.3243 39.3162 74.3243 39.3162 74.8649 39.8567C74.9325 40.5324 74.9325 40.5324 74.8649 41.2081C74.3243 41.7486 74.3243 41.7486 73.6487 41.8162C72.973 41.7486 72.973 41.7486 72.4325 41.2081C72.3649 40.5324 72.3649 40.5324 72.4325 39.8567C72.973 39.3162 72.973 39.3162 73.6487 39.2486Z" fill="#00A1E9"/>
<path d="M6.35136 37.8972C7.02704 37.9648 7.02704 37.9648 7.56758 38.5054C7.63515 39.181 7.63515 39.181 7.56758 39.8567C7.02704 40.3972 7.02704 40.3972 6.35136 40.4648C5.67569 40.3972 5.67569 40.3972 5.13515 39.8567C5.06758 39.181 5.06758 39.181 5.13515 38.5054C5.67569 37.9648 5.67569 37.9648 6.35136 37.8972Z" fill="#00A1E8"/>
<path d="M38.9189 69.3162C39.6284 69.4175 39.6284 69.4175 40.2703 69.5864C40.4561 70.2114 40.4561 70.2114 40.5405 70.9378C40.152 71.4276 40.152 71.4276 39.7297 71.7486C39.0608 71.481 39.0608 71.481 38.3784 71.2081C38.3446 70.5662 38.3446 70.5662 38.3784 69.8567C38.5567 69.6783 38.7351 69.4999 38.9189 69.3162Z" fill="#009CE3"/>
<path d="M24.5946 5.53238C25.2635 5.79995 25.2635 5.79995 25.946 6.07292C25.9798 6.71481 25.9798 6.71481 25.946 7.42427C25.7676 7.60265 25.5892 7.78103 25.4054 7.96481C24.696 7.86346 24.696 7.86346 24.0541 7.69454C23.8683 7.06954 23.8683 7.06954 23.7838 6.34319C24.1723 5.85333 24.1723 5.85333 24.5946 5.53238Z" fill="#009CE3"/>
<path d="M54.3244 9.85672C54.8648 9.84522 55.4055 9.84569 55.946 9.85672C56.2162 10.127 56.2162 10.127 56.2669 10.7858C56.2162 11.4783 56.2162 11.4783 55.6757 12.0189C54.9662 11.9175 54.9662 11.9175 54.3244 11.7486C54.0203 10.4648 54.0203 10.4648 54.3244 9.85672Z" fill="#009EE5"/>
<path d="M40.8108 8.0155C41.3514 8.23509 41.3514 8.23509 41.6892 8.79253C41.7561 8.96533 41.823 9.13814 41.8919 9.31618C41.6243 9.71753 41.6243 9.71753 41.3514 10.127C40.6757 10.2114 40.6757 10.2114 40 10.127C39.8216 9.94861 39.6433 9.77023 39.4595 9.58645C39.527 8.89388 39.527 8.89388 39.7297 8.23509C40.2703 7.96482 40.2703 7.96482 40.8108 8.0155Z" fill="#009DE4"/>
<path d="M25.0338 67.6608C25.2456 67.6719 25.4575 67.6831 25.6757 67.6946C25.8446 68.4716 25.8446 68.4716 25.946 69.3162C25.7676 69.4946 25.5892 69.6729 25.4054 69.8567C24.696 69.7554 24.696 69.7554 24.0541 69.5864C23.8852 68.9446 23.8852 68.9446 23.7838 68.2351C24.3244 67.6946 24.3244 67.6946 25.0338 67.6608Z" fill="#00A1E8"/>
<path d="M54.5946 71.7486C55.3041 71.8499 55.3041 71.8499 55.946 72.0189C56.1149 72.6608 56.1149 72.6608 56.2162 73.3702C56.0379 73.5486 55.8595 73.727 55.6757 73.9108C54.9662 73.8094 54.9662 73.8094 54.3243 73.6405C54.1554 72.9986 54.1554 72.9986 54.0541 72.2891C54.2325 72.1108 54.4108 71.9324 54.5946 71.7486Z" fill="#00A2E9"/>
</svg>
