<svg width="48" height="48" viewBox="0 0 48 48" fill="none" xmlns="http://www.w3.org/2000/svg">
<g clip-path="url(#clip0_48_2)">
<path fill-rule="evenodd" clip-rule="evenodd" d="M12.85 3.6C12.9854 3.37361 13.1657 3.17736 13.3798 3.02338C13.594 2.86939 13.8374 2.76094 14.0951 2.70471C14.3528 2.64849 14.6193 2.64568 14.8782 2.69647C15.137 2.74726 15.3827 2.85056 15.6 3C15.91 3.22 16.07 3.97 16.07 3.98C16.11 3.98 21.03 3.88 21.1 3.98C21.2 4.11 21.03 9.3 21.1 13.02C21.33 12.79 21.65 12.35 22.6 12.15C22.9 12.09 24.12 11.98 24.13 11.98V7.25C24.13 7.25 23.58 7.15 23.3 6.96C22.83 6.64 22.57 6.23 22.6 5.69C22.7 5.18 22.84 4.25 23.51 3.77C24.38 3.15 25.18 3.11 26.04 3.6C26.94 4.1 27.41 5 27.1 5.95C26.88 6.66 26.17 6.88 25.7 7.25V11.97C26.42 11.97 27.33 12.29 28.07 12.29V11.51L28.12 9.21V8.81L28.13 8.15V7.7C28.16 6.64 28.16 6.64 28.34 6.46L29.14 6.43H29.64C29.98 6.42 30.9 6.41 31.24 6.43C31.59 6.44 31.87 6.17 32.12 5.76C32.34 5.42 32.62 5.12 33.09 4.98C33.69 4.79 34.29 4.78 34.85 5.2C35.29 5.53 35.38 5.83 35.54 6.42C35.57 6.8 35.63 7.24 35.44 7.7C35.2804 8.08032 35.0077 8.40234 34.6589 8.62237C34.3101 8.84241 33.902 8.94981 33.49 8.93C32.71 8.91 32.19 8.4 31.75 7.97C30.75 7.92 29.86 7.97 29.85 7.97V12.67L31.07 13.06C32.35 13.81 33.46 14.16 34.32 15.38C34.65 15.85 34.91 16.28 35.8 16.35C36.9356 16.6689 38.0056 17.1869 38.96 17.88H45.37V14.04C45.15 13.94 44.97 13.8 44.77 13.68C44.19 13.34 44.06 12.59 44.12 11.94C44.18 11.27 44.6 10.86 45.22 10.58C45.7 10.37 46.27 10.44 46.79 10.48C47.25 10.68 47.61 10.82 47.86 11.27C48.2 11.86 47.8 13 47.8 13C47.8 13.01 47.56 13.69 47.27 13.86C47.11 13.96 46.91 14.04 46.8 14.04V17.47L46.81 18.09C46.79 18.55 46.76 19.39 46.59 19.56C46.35 19.58 42.32 19.56 42.08 19.56H39.64C39.69 19.66 40.41 21.36 40.48 21.82C40.58 22.45 40.64 22.66 40.79 23.11C41.68 23.16 42.24 23.14 43.15 23.11C43.26 22.83 43.32 22.42 43.54 22.15C44.1 21.45 45.42 21.31 46.18 21.82C46.78 22.24 46.88 22.99 46.93 23.61C46.99 24.37 46.8 24.67 46.3 25.27C45.63 25.65 44.74 26.02 43.97 25.54C43.52 25.26 43.15 24.7 43.15 24.7C43.12 24.7 41.34 24.72 41.05 24.7C41.05 24.9 41.03 24.8 41.05 25C41.05 26.02 40.07 28.22 40.06 28.24H42.96C42.97 28.24 44.49 28.38 44.66 28.54V32.54C44.64 33.6 44.82 33.64 44.83 33.64C44.83 33.64 45.49 33.86 45.75 34.19C46.17 34.71 46.14 35.25 45.92 35.88C45.8295 36.1756 45.6655 36.4435 45.4434 36.6585C45.2213 36.8736 44.9484 37.029 44.65 37.11C44.3069 37.2302 43.9376 37.2546 43.5817 37.1806C43.2258 37.1066 42.8968 36.937 42.63 36.69C41.99 36.15 41.95 35.33 42.18 34.59C42.33 34.09 43.06 33.64 43.06 33.64C43.06 33.64 43 31.34 43.06 30.19C42.32 30.19 42.22 30.22 41.67 30.19C40.61 30.13 39.9 30.19 38.83 30.19C37.03 30.19 35.38 30.61 34.53 30.93C33.91 31.16 32.95 32.27 32.95 32.27C32.95 32.28 31.92 33.32 31.18 33.9C30.43 34.48 30.02 34.69 30.01 34.69V42.59H33.05C33.1 42.36 33.15 42.25 33.28 42.08C33.78 41.4 34.66 41.38 35.41 41.78C35.93 42.05 36.2 42.38 36.34 42.98C36.39 43.64 36.44 44.24 35.94 44.76C35.35 45.38 34.5 45.54 33.77 45.08C33.38 44.85 33.3 44.53 33.05 44.17H29.05C28.9306 44.1708 28.8126 44.1442 28.7051 44.0921C28.5976 44.0401 28.5035 43.9641 28.43 43.87L28.45 42.81V39.3L28.43 37.82V35.56C27.43 35.72 24.7 35.94 24.67 35.94C24.67 35.94 24.72 38.39 24.66 40.56C24.88 40.67 25.09 40.76 25.29 40.98C25.78 41.48 25.89 42.07 25.67 42.73C25.5778 43.0303 25.4018 43.2981 25.1626 43.5018C24.9235 43.7055 24.6312 43.8367 24.32 43.88C23.9753 43.9659 23.6131 43.9513 23.2764 43.8379C22.9397 43.7245 22.6425 43.517 22.42 43.24C21.98 42.66 21.92 42.04 22.25 41.38C22.44 40.98 23.05 40.57 23.05 40.56V35.94C20.97 35.9 20.08 36.57 20.07 37C20.07 37.44 20.12 39.2 20.07 40.27C20.05 40.76 20.15 41.29 20.02 41.52C19.97 41.62 19.48 41.72 19.22 41.72H16.98C15.96 41.74 16.34 41.55 16.13 42.05C16.03 42.3 15.87 42.42 15.7 42.59C15.15 43.14 14.25 43.04 13.63 42.52C13.17 42.13 13.08 41.69 13.03 41.09C12.99 40.55 13.08 40.17 13.42 39.75C13.84 39.22 14.45 39.15 15.09 39.28C15.58 39.38 15.76 39.59 16.13 40.01C16.42 40.4 16.1 40.25 16.73 40.27H18.53V37.3199C17.62 37.6599 16.73 37.52 16.73 37.52C16.73 37.52 13.13 37.33 11 35.92C8.68001 34.39 8.05001 33.22 7.37001 30.84C7.31001 30.28 7.02001 29.52 6.97001 28.95H3.00001V32.33C3.22001 32.39 3.26001 32.47 3.49001 32.53C3.94001 32.95 4.12001 33.36 4.12001 33.97C4.12001 34.73 3.83001 35.27 3.20001 35.69C2.56001 36.1 1.95001 36.15 1.26001 35.84C0.640014 35.57 0.150014 34.53 0.140014 34.5C0.140014 34.5 -0.119986 33.69 0.0700137 33.23C0.220014 32.89 0.560014 32.49 0.920014 32.41C1.35001 32.31 1.26001 32.53 1.27001 32.02V31.02L1.28001 30.42V29.67L1.31001 27.27H7.37001C7.45001 26.77 7.37001 26.94 7.45001 26.43C7.49001 26.32 7.50001 26.04 7.54001 25.93C7.61001 25.43 7.39001 25.17 7.15001 24.75C6.72001 23.95 6.89001 24.33 6.70001 23.57H4.85001C4.74001 23.85 4.57001 24.2 4.15001 24.44C3.69001 24.72 3.28001 24.7 2.74001 24.63C2.00001 24.53 1.64001 24.37 1.31001 23.71C0.910014 22.93 1.13001 22.31 1.60001 21.56C2.09001 20.81 2.80001 20.85 3.59001 20.97C4.28001 21.08 4.50001 21.63 4.85001 22.1H6.70001C6.76001 20.87 7.97001 19.7 7.98001 19.68C7.96001 19.68 5.54001 19.62 4.40001 19.46C3.96001 19.4 3.40001 19.46 3.40001 18.95V14.7C3.18001 14.59 2.96001 14.63 2.72001 14.47C2.23001 14.16 2.18001 13.71 2.11001 13.11C2.19001 12.41 2.35001 11.95 2.87001 11.54C3.41001 11.12 3.95001 11.04 4.59001 11.26C5.39001 11.52 5.84001 12.23 5.88001 13C5.91001 13.57 5.66001 14.09 5.16001 14.47C4.95001 14.64 4.86001 14.42 4.93001 14.7V18.04C5.63001 18.04 6.26001 18.17 6.96001 18.16H7.68001C9.25001 18.15 10.19 17.68 11.41 16.5C11.75 16.17 11.98 15.81 12.45 15.2C13.68 13.57 14.96 13.38 16.65 13C17.6338 12.8793 18.6316 12.9471 19.59 13.2V5.55C18.38 5.55 16.09 5.61 16.07 5.61C16.07 5.61 15.82 6.26 15.36 6.39C14.39 6.75 13.5 6.59 12.93 5.93C12.33 5.25 12.45 4.31 12.85 3.61V3.6ZM34.61 42.5C34.3448 42.5 34.0904 42.6054 33.9029 42.7929C33.7154 42.9804 33.61 43.2348 33.61 43.5C33.61 43.7652 33.7154 44.0196 33.9029 44.2071C34.0904 44.3946 34.3448 44.5 34.61 44.5C34.8752 44.5 35.1296 44.3946 35.3171 44.2071C35.5047 44.0196 35.61 43.7652 35.61 43.5C35.61 43.2348 35.5047 42.9804 35.3171 42.7929C35.1296 42.6054 34.8752 42.5 34.61 42.5ZM23.86 41.14C23.5948 41.14 23.3404 41.2454 23.1529 41.4329C22.9654 41.6204 22.86 41.8748 22.86 42.14C22.86 42.4052 22.9654 42.6596 23.1529 42.8471C23.3404 43.0346 23.5948 43.14 23.86 43.14C24.1252 43.14 24.3796 43.0346 24.5671 42.8471C24.7547 42.6596 24.86 42.4052 24.86 42.14C24.86 41.8748 24.7547 41.6204 24.5671 41.4329C24.3796 41.2454 24.1252 41.14 23.86 41.14ZM14.66 40.01C14.3948 40.01 14.1404 40.1154 13.9529 40.3029C13.7654 40.4904 13.66 40.7448 13.66 41.01C13.66 41.2752 13.7654 41.5296 13.9529 41.7171C14.1404 41.9046 14.3948 42.01 14.66 42.01C14.9252 42.01 15.1796 41.9046 15.3671 41.7171C15.5547 41.5296 15.66 41.2752 15.66 41.01C15.66 40.7448 15.5547 40.4904 15.3671 40.3029C15.1796 40.1154 14.9252 40.01 14.66 40.01ZM44.01 34.28C43.7448 34.28 43.4904 34.3854 43.3029 34.5729C43.1154 34.7604 43.01 35.0148 43.01 35.28C43.01 35.5452 43.1154 35.7996 43.3029 35.9871C43.4904 36.1746 43.7448 36.28 44.01 36.28C44.2752 36.28 44.5296 36.1746 44.7171 35.9871C44.9047 35.7996 45.01 35.5452 45.01 35.28C45.01 35.0148 44.9047 34.7604 44.7171 34.5729C44.5296 34.3854 44.2752 34.28 44.01 34.28ZM28.07 14.15C25.71 13.67 24.27 13.5 22.25 14.59L21.85 14.82C22.8 15.8 22.68 15.68 22.68 16.34C22.0804 16.1032 21.5206 15.7761 21.02 15.37C19.95 14.42 17.69 14.51 15.72 15.19C14.67 15.56 12.59 17.21 12.77 18.28C13.25 19.57 15.07 21.04 15.07 21.05C15.07 21.05 16.87 22.25 17.53 22.57L17.65 22.62C17.71 22.79 17.82 23.4 17.87 23.57C16.4048 23.161 15.0188 22.5086 13.77 21.64C12.8412 20.8474 11.9845 19.974 11.21 19.03C11.21 19.03 9.38001 20.38 8.81001 21.64C8.60417 22.1576 8.44683 22.6933 8.34001 23.24V24.16C8.34001 24.16 8.54001 24.75 8.72001 24.75L9.35001 24C9.61001 23.68 9.88001 23.45 10.23 23.23H11.33L10.13 24.91C10.13 24.93 8.92001 27.46 9.07001 29.15C9.15733 30.7124 9.84957 32.1793 11 33.24C11.71 33.86 13.13 34.57 13.95 35.02C14.5978 35.3489 15.2927 35.5749 16.01 35.69C17.51 35.9 19.26 35.5 19.81 35.02C19.113 34.8971 18.4629 34.5859 17.93 34.12C17.7649 33.9642 17.5758 33.8359 17.37 33.74L18.05 33.28L18.53 33.58C19.04 33.86 19.43 34.04 20.07 34.13C20.66 34.21 21.29 34.04 21.58 34.05C24.78 34.09 28.57 33.95 31.07 31.7C31.77 30.95 31.83 30.44 31.85 29.4C31.8 28.3 31.31 28 30.56 27.17C28.88 25.87 27.36 26.1 25.35 26.27C24.38 26.43 23.51 26.65 22.57 26.93C22.12 27.07 21.6 27.16 21.11 27.27L20.63 27.37C19.83 27.57 18.88 27.61 18.05 27.67C18.08 27.9 18.04 28.11 18.05 28.4C18.07 28.7 18.05 28.74 18.14 29.16C20.03 28.86 21.79 29.11 23.71 29.58C24.11 29.71 24.97 29.76 25.46 29.74C25.46 29.9 24.66 30.46 24.66 30.64C23.27 30.84 22.58 30.64 22.57 30.64C22.57 30.64 21.55 30.24 19.04 30.24C18.5 30.24 18.3 30.14 17.54 31.82C16.69 32.66 15.62 32.52 14.44 32.52L13.76 32.5C13.71 32.33 13.66 32.16 13.59 32L13.95 31.98C15.15 31.91 15.85 31.73 16.74 30.85C17.04 30.31 17.21 29.59 17.08 28.79C17 28.33 16.95 27.88 16.66 27.67C16.27 27.39 15.54 27.26 15.07 27.17C14.39 26.92 14.01 27.07 13.26 26.44V25.43C13.71 25.6 15.74 25.93 15.74 25.93C15.76 25.94 18.34 26.59 19.92 26.23L21.5 25.77L22 25.61C22.34 25.5 22.1 25.55 22.43 25.43C22.36 25.34 22.16 25.01 22.09 24.93C21.5489 24.2634 21.1813 23.4732 21.02 22.63C20.76 22 20.63 22.02 20.06 21.65C18.833 20.7823 17.9878 19.475 17.7 18L17.64 17.54H18.31C18.32 17.67 18.68 17.74 18.69 17.88C19.0083 19.2042 19.8391 20.3479 21 21.06H21.33L21.5 20.05H22.17L22.09 20.37C21.85 21.84 22.65 22.81 23.46 24.08C23.71 24.41 23.71 24.63 24.04 24.77C24.53 24.77 25.04 24.67 25.54 24.63C28.7 24.43 28.53 24.29 31.18 25.61C31.61 25.83 31.54 25.95 32.02 26.08C32.79 25.51 33.47 24.38 34.11 23.11H35.35C34.97 24.47 33.2 26.91 33.19 26.93C33.19 26.93 32.99 27.47 33.11 28.01C33.16 28.22 33.74 28.98 33.75 29C33.75 29 36.49 28.84 38.1 27.28C39.04 26.11 39.17 25.48 39.03 24.01C38.63 21.66 38.61 20.43 36.69 19.04C35.81 18.51 34.26 17.74 33.27 17.86C31.87 18.61 31.77 18.49 30.94 19.81C30.76 20.25 30.89 21.26 30.82 21.73H29.57V20.76L28.24 20.16C26.64 19.71 26.12 19.14 25.76 18.35C25.62 17.77 25.36 17.28 25.35 16.85H26.05C26.21 17.11 26.21 17.11 26.39 17.46C27.03 18.53 28.14 18.76 29.3 19.14C29.73 19.23 29.79 19.19 29.85 19.04C30.03 18.58 29.95 18.64 30.28 18.2C30.8039 17.4818 31.5122 16.9186 32.33 16.57C30.97 14.67 30.27 14.79 28.07 14.17V14.15ZM2.10001 32.91C1.8348 32.91 1.58044 33.0154 1.39291 33.2029C1.20537 33.3904 1.10001 33.6448 1.10001 33.91C1.10001 34.1752 1.20537 34.4296 1.39291 34.6171C1.58044 34.8046 1.8348 34.91 2.10001 34.91C2.36523 34.91 2.61958 34.8046 2.80712 34.6171C2.99466 34.4296 3.10001 34.1752 3.10001 33.91C3.10001 33.6448 2.99466 33.3904 2.80712 33.2029C2.61958 33.0154 2.36523 32.91 2.10001 32.91ZM45.04 22.6C44.7748 22.6 44.5204 22.7054 44.3329 22.8929C44.1454 23.0804 44.04 23.3348 44.04 23.6C44.04 23.8652 44.1454 24.1196 44.3329 24.3071C44.5204 24.4946 44.7748 24.6 45.04 24.6C45.3052 24.6 45.5596 24.4946 45.7471 24.3071C45.9347 24.1196 46.04 23.8652 46.04 23.6C46.04 23.3348 45.9347 23.0804 45.7471 22.8929C45.5596 22.7054 45.3052 22.6 45.04 22.6ZM3.04001 21.76C2.7748 21.76 2.52044 21.8654 2.33291 22.0529C2.14537 22.2404 2.04001 22.4948 2.04001 22.76C2.04001 23.0252 2.14537 23.2796 2.33291 23.4671C2.52044 23.6546 2.7748 23.76 3.04001 23.76C3.30523 23.76 3.55958 23.6546 3.74712 23.4671C3.93466 23.2796 4.04001 23.0252 4.04001 22.76C4.04001 22.4948 3.93466 22.2404 3.74712 22.0529C3.55958 21.8654 3.30523 21.76 3.04001 21.76ZM4.02001 12.02C3.7548 12.02 3.50044 12.1254 3.31291 12.3129C3.12537 12.5004 3.02001 12.7548 3.02001 13.02C3.02001 13.2852 3.12537 13.5396 3.31291 13.7271C3.50044 13.9146 3.7548 14.02 4.02001 14.02C4.28523 14.02 4.53958 13.9146 4.72712 13.7271C4.91466 13.5396 5.02001 13.2852 5.02001 13.02C5.02001 12.7548 4.91466 12.5004 4.72712 12.3129C4.53958 12.1254 4.28523 12.02 4.02001 12.02ZM46.1 11.29C45.8348 11.29 45.5804 11.3954 45.3929 11.5829C45.2054 11.7704 45.1 12.0248 45.1 12.29C45.1 12.5552 45.2054 12.8096 45.3929 12.9971C45.5804 13.1846 45.8348 13.29 46.1 13.29C46.3652 13.29 46.6196 13.1846 46.8071 12.9971C46.9947 12.8096 47.1 12.5552 47.1 12.29C47.1 12.0248 46.9947 11.7704 46.8071 11.5829C46.6196 11.3954 46.3652 11.29 46.1 11.29ZM33.7 5.84C33.4348 5.84 33.1804 5.94536 32.9929 6.13289C32.8054 6.32043 32.7 6.57478 32.7 6.84C32.7 7.10522 32.8054 7.35957 32.9929 7.54711C33.1804 7.73464 33.4348 7.84 33.7 7.84C33.9652 7.84 34.2196 7.73464 34.4071 7.54711C34.5947 7.35957 34.7 7.10522 34.7 6.84C34.7 6.57478 34.5947 6.32043 34.4071 6.13289C34.2196 5.94536 33.9652 5.84 33.7 5.84ZM24.98 4.3C24.7148 4.3 24.4604 4.40536 24.2729 4.59289C24.0854 4.78043 23.98 5.03478 23.98 5.3C23.98 5.56522 24.0854 5.81957 24.2729 6.00711C24.4604 6.19464 24.7148 6.3 24.98 6.3C25.2452 6.3 25.4996 6.19464 25.6871 6.00711C25.8747 5.81957 25.98 5.56522 25.98 5.3C25.98 5.03478 25.8747 4.78043 25.6871 4.59289C25.4996 4.40536 25.2452 4.3 24.98 4.3ZM14.4 3.55C14.1348 3.55 13.8804 3.65536 13.6929 3.84289C13.5054 4.03043 13.4 4.28478 13.4 4.55C13.4 4.81522 13.5054 5.06957 13.6929 5.25711C13.8804 5.44464 14.1348 5.55 14.4 5.55C14.6652 5.55 14.9196 5.44464 15.1071 5.25711C15.2947 5.06957 15.4 4.81522 15.4 4.55C15.4 4.28478 15.2947 4.03043 15.1071 3.84289C14.9196 3.65536 14.6652 3.55 14.4 3.55Z" fill="white"/>
</g>
<defs>
<clipPath id="clip0_48_2">
<rect width="48" height="48" fill="white"/>
</clipPath>
</defs>
</svg>
